<?xml version="1.0" encoding="UTF-8"?>
<svg width="159px" height="24px" viewBox="0 0 159 24" version="1.1" xmlns="http://www.w3.org/2000/svg" xmlns:xlink="http://www.w3.org/1999/xlink">
    <title>modernspace</title>
    <g id="Symbols" stroke="none" stroke-width="1" fill="none" fill-rule="evenodd">
        <g id="Menu-open" transform="translate(-32.000000, -28.000000)" fill-rule="nonzero">
            <g id="modernspace">
                <g transform="translate(32.000000, 28.000000)">
                    <path d="M17.5456314,18.9688385 C17.8800922,18.9688385 18.1557963,18.9575071 18.3727439,18.9348442 C18.5896914,18.9121813 18.7614415,18.878187 18.8879943,18.8328612 C19.014547,18.7875354 19.1049418,18.7308782 19.1591787,18.6628895 C19.2134155,18.5949008 19.240534,18.5155807 19.240534,18.4249292 L19.240534,18.4249292 L19.240534,10.6606232 C19.240534,9.96260623 19.1682181,9.30084986 19.0235865,8.67535411 C18.8789548,8.04985836 18.6371487,7.50368272 18.2981682,7.0368272 C17.9591876,6.56997167 17.5139932,6.20056657 16.9625849,5.9286119 C16.4111766,5.65665722 15.7332156,5.52067989 14.9287018,5.52067989 C14.5761621,5.52067989 14.230402,5.56373938 13.8914215,5.64985836 C13.552441,5.73597734 13.2134604,5.8674221 12.8744799,6.04419263 C12.5354994,6.22096317 12.1919992,6.44985836 11.8439792,6.73087819 C11.4959592,7.01189802 11.1411596,7.34730878 10.7795804,7.73711048 C10.6259092,7.40169972 10.4360801,7.098017 10.2100931,6.82606232 C9.98410608,6.55410765 9.71518154,6.32067989 9.40331946,6.12577904 C9.09145739,5.93087819 8.73665779,5.78130312 8.33892065,5.67705382 C7.94118351,5.57280453 7.49372923,5.52067989 6.99655781,5.52067989 C6.27339938,5.52067989 5.57961926,5.701983 4.91521746,6.06458924 C4.25081565,6.42719547 3.58415397,6.97110482 2.91523242,7.69631728 L2.91523242,7.69631728 L2.91523242,6.29575071 C2.91523242,6.20509915 2.89263372,6.12577904 2.84743632,6.05779037 C2.80223892,5.9898017 2.7276632,5.93314448 2.62370918,5.8878187 C2.51975516,5.84249292 2.3728636,5.80849858 2.18303451,5.78583569 C1.99320542,5.7631728 1.75365919,5.75184136 1.46439582,5.75184136 C1.18417193,5.75184136 0.95140531,5.7631728 0.766095962,5.78583569 C0.580786614,5.80849858 0.429375318,5.84249292 0.311862073,5.8878187 C0.194348828,5.93314448 0.112993505,5.9898017 0.0677961028,6.05779037 C0.0225987009,6.12577904 0,6.20509915 0,6.29575071 L0,6.29575071 L0,18.4249292 C0,18.5155807 0.0271184411,18.5949008 0.0813553234,18.6628895 C0.135592206,18.7308782 0.22824688,18.7875354 0.359319345,18.8328612 C0.490391811,18.878187 0.664401808,18.9121813 0.881349337,18.9348442 C1.09829687,18.9575071 1.37400102,18.9688385 1.70846179,18.9688385 C2.04292257,18.9688385 2.31862672,18.9575071 2.53557425,18.9348442 C2.75252178,18.9121813 2.92653177,18.878187 3.05760424,18.8328612 C3.1886767,18.7875354 3.28133138,18.7308782 3.33556826,18.6628895 C3.38980514,18.5949008 3.41692358,18.5155807 3.41692358,18.4249292 L3.41692358,18.4249292 L3.41692358,10.3614731 C3.89601604,9.75410765 4.34347032,9.2917847 4.75928642,8.97450425 C5.17510252,8.6572238 5.59091861,8.49858357 6.00673471,8.49858357 C6.33215601,8.49858357 6.61689964,8.56430595 6.86096561,8.69575071 C7.10503158,8.82719547 7.30390015,9.01303116 7.45757131,9.25325779 C7.61124248,9.49348442 7.72649585,9.78130312 7.80333144,10.1167139 C7.88016702,10.4521246 7.91858481,10.823796 7.91858481,11.231728 L7.91858481,11.231728 L7.91858481,18.4249292 C7.91858481,18.5155807 7.94570325,18.5949008 7.99994014,18.6628895 C8.05417702,18.7308782 8.14683169,18.7875354 8.27790416,18.8328612 C8.40897662,18.878187 8.58298662,18.9121813 8.79993415,18.9348442 C9.01688168,18.9575071 9.29258583,18.9688385 9.6270466,18.9688385 C9.9524679,18.9688385 10.2236523,18.9575071 10.4405998,18.9348442 C10.6575474,18.9121813 10.8315574,18.878187 10.9626298,18.8328612 C11.0937023,18.7875354 11.186357,18.7308782 11.2405939,18.6628895 C11.2948307,18.5949008 11.3219492,18.5155807 11.3219492,18.4249292 L11.3219492,18.4249292 L11.3219492,10.3614731 C11.8100811,9.75410765 12.2620551,9.2917847 12.6778712,8.97450425 C13.0936873,8.6572238 13.5049837,8.49858357 13.9117603,8.49858357 C14.2462211,8.49858357 14.5332246,8.56430595 14.7727708,8.69575071 C15.012317,8.82719547 15.2111856,9.01303116 15.3693765,9.25325779 C15.5275674,9.49348442 15.6450807,9.78130312 15.7219163,10.1167139 C15.7987518,10.4521246 15.8371696,10.823796 15.8371696,11.231728 L15.8371696,11.231728 L15.8371696,18.4249292 C15.8371696,18.5155807 15.8620282,18.5949008 15.9117453,18.6628895 C15.9614625,18.7308782 16.0518573,18.7875354 16.1829297,18.8328612 C16.3140022,18.878187 16.4880122,18.9121813 16.7049597,18.9348442 C16.9219073,18.9575071 17.2021312,18.9688385 17.5456314,18.9688385 Z M28.7450052,19.2 C29.8568613,19.2 30.8286055,19.0322946 31.6602377,18.6968839 C32.4918699,18.3614731 33.1833901,17.8855524 33.7347984,17.2691218 C34.2862067,16.6526912 34.6975031,15.9184136 34.9686875,15.066289 C35.2398719,14.2141643 35.3754641,13.2713881 35.3754641,12.2379603 C35.3754641,11.1592068 35.2489114,10.2028329 34.9958059,9.36883853 C34.7427005,8.53484419 34.3562627,7.83229462 33.8364926,7.2611898 C33.3167224,6.69008499 32.6591002,6.2572238 31.863626,5.96260623 C31.0681517,5.66798867 30.1280457,5.52067989 29.0433081,5.52067989 C27.931452,5.52067989 26.9619677,5.68838527 26.1348553,6.02379603 C25.3077428,6.3592068 24.6184824,6.83286119 24.0670741,7.44475921 C23.5156658,8.05665722 23.1021096,8.79093484 22.8264055,9.64759207 C22.5507013,10.5042493 22.4128492,11.4492918 22.4128492,12.4827195 C22.4128492,13.5524079 22.539402,14.5042493 22.7925074,15.3382436 C23.0456129,16.172238 23.4343105,16.8747875 23.9586004,17.4458924 C24.4828902,18.0169972 25.1427723,18.4521246 25.9382466,18.7512748 C26.7337209,19.0504249 27.6693071,19.2 28.7450052,19.2 Z M28.8670382,16.4668555 C28.3065904,16.4668555 27.8365375,16.3648725 27.4568793,16.1609065 C27.0772211,15.9569405 26.7766584,15.6691218 26.5551911,15.2974504 C26.3337238,14.925779 26.1732731,14.4883853 26.0738388,13.9852691 C25.9744045,13.482153 25.9246874,12.9314448 25.9246874,12.3331445 C25.9246874,11.6895184 25.9857039,11.1161473 26.1077368,10.6130312 C26.2297698,10.109915 26.4128193,9.67932011 26.6568853,9.32124646 C26.9009512,8.9631728 27.2128133,8.69121813 27.5924715,8.50538244 C27.9721297,8.31954674 28.4150642,8.2266289 28.9212751,8.2266289 C29.4907624,8.2266289 29.9630752,8.33087819 30.3382137,8.53937677 C30.7133521,8.74787535 31.0139148,9.03796034 31.2399018,9.40963173 C31.4658888,9.78130312 31.6263396,10.2186969 31.7212542,10.721813 C31.8161687,11.2249292 31.863626,11.7756374 31.863626,12.3739377 C31.863626,13.0175637 31.8048693,13.5909348 31.6873561,14.094051 C31.5698429,14.5971671 31.3890532,15.0254958 31.1449873,15.3790368 C30.9009213,15.7325779 30.5890592,16.0022663 30.2094011,16.188102 C29.8297429,16.3739377 29.3822886,16.4668555 28.8670382,16.4668555 Z M42.9816445,19.2 C43.8132767,19.2 44.5703331,19.0141643 45.2528139,18.6424929 C45.9352947,18.2708215 46.5883971,17.7495751 47.2121213,17.0787535 L47.2121213,17.0787535 L47.2121213,18.4249292 C47.2121213,18.5246459 47.2369799,18.6084986 47.286697,18.6764873 C47.3364141,18.7444759 47.4177695,18.8011331 47.530763,18.8464589 C47.6437565,18.8917847 47.790648,18.9235127 47.9714376,18.9416431 C48.1522272,18.9597734 48.3872537,18.9688385 48.6765171,18.9688385 C48.9477015,18.9688385 49.1759484,18.9597734 49.3612577,18.9416431 C49.5465671,18.9235127 49.6934586,18.8917847 49.8019324,18.8464589 C49.9104062,18.8011331 49.9872418,18.7444759 50.0324392,18.6764873 C50.0776366,18.6084986 50.1002353,18.5246459 50.1002353,18.4249292 L50.1002353,18.4249292 L50.1002353,0.58470255 C50.1002353,0.494050992 50.0731168,0.412464589 50.0188799,0.339943343 C49.9646431,0.267422096 49.8742483,0.206232295 49.7476955,0.156373938 C49.6211428,0.106515581 49.4493927,0.0679886686 49.2324451,0.0407932011 C49.0154976,0.0135977337 48.7397935,0 48.4053327,0 C48.0708719,0 47.7951678,0.0135977337 47.5782202,0.0407932011 C47.3612727,0.0679886686 47.1872627,0.106515581 47.0561902,0.156373938 C46.9251178,0.206232295 46.834723,0.267422096 46.7850058,0.339943343 C46.7352887,0.412464589 46.7104301,0.494050992 46.7104301,0.58470255 L46.7104301,0.58470255 L46.7104301,7.15240793 C46.1680613,6.61756374 45.6211727,6.21189802 45.0697644,5.93541076 C44.5183561,5.65892351 43.9036715,5.52067989 43.2257104,5.52067989 C42.3669598,5.52067989 41.6076434,5.68385269 40.9477614,6.0101983 C40.2878793,6.33654391 39.736471,6.80339943 39.2935365,7.41076487 C38.8506019,8.01813031 38.5138813,8.75240793 38.2833745,9.61359773 C38.0528678,10.4747875 37.9376144,11.4447592 37.9376144,12.5235127 C37.9376144,13.4209632 38.0280092,14.2753541 38.2087988,15.0866856 C38.3895884,15.898017 38.6811117,16.6073654 39.0833686,17.2147309 C39.4856254,17.8220963 40.0053956,18.3048159 40.6426789,18.6628895 C41.2799623,19.0209632 42.0596175,19.2 42.9816445,19.2 Z M43.8358754,16.3036827 C43.3658224,16.3036827 42.9771247,16.1903683 42.6697824,15.9637394 C42.3624401,15.7371105 42.1161142,15.4356941 41.9308049,15.0594901 C41.7454955,14.6832861 41.6121632,14.2549575 41.5308079,13.7745042 C41.4494525,13.294051 41.4087749,12.8 41.4087749,12.2923513 C41.4087749,11.811898 41.4562322,11.3427762 41.5511467,10.8849858 C41.6460612,10.4271955 41.7906929,10.0124646 41.9850418,9.6407932 C42.1793906,9.26912181 42.4370158,8.97223796 42.7579173,8.75014164 C43.0788189,8.52804533 43.4607369,8.41699717 43.9036715,8.41699717 C44.3918034,8.41699717 44.8595965,8.58016997 45.3070508,8.90651558 C45.7545051,9.23286119 46.2222982,9.70424929 46.7104301,10.3206799 L46.7104301,10.3206799 L46.7104301,14.3456091 C46.4211668,14.7082153 46.1545021,15.0141643 45.9104361,15.2634561 C45.6663701,15.5127479 45.4290838,15.7144476 45.198577,15.8685552 C44.9680703,16.0226629 44.7420833,16.133711 44.520616,16.2016997 C44.2991487,16.2696884 44.0709019,16.3036827 43.8358754,16.3036827 Z M59.8487725,19.2 C60.4453782,19.2 61.005826,19.1614731 61.5301158,19.0844193 C62.0544057,19.0073654 62.5199389,18.9167139 62.9267156,18.8124646 C63.3334922,18.7082153 63.6679529,18.6016997 63.9300979,18.4929178 C64.1922428,18.384136 64.3526936,18.298017 64.4114502,18.2345609 C64.4702068,18.1711048 64.5176641,18.1053824 64.553822,18.0373938 C64.5899799,17.9694051 64.6170984,17.8855524 64.6351773,17.7858357 C64.6532563,17.686119 64.6668155,17.5660057 64.675855,17.4254958 C64.6848945,17.2849858 64.6894142,17.1150142 64.6894142,16.9155807 C64.6894142,16.6889518 64.6826346,16.5008499 64.6690754,16.3512748 C64.6555162,16.2016997 64.6306576,16.086119 64.5944997,16.0045326 C64.5583418,15.9229462 64.5131444,15.866289 64.4589075,15.8345609 C64.4046706,15.8028329 64.3368745,15.7869688 64.2555192,15.7869688 C64.119927,15.7869688 63.9436571,15.8300283 63.7267096,15.9161473 C63.509762,16.0022663 63.2363178,16.0974504 62.9063767,16.2016997 C62.5764357,16.305949 62.1854782,16.4011331 61.7335041,16.4872521 C61.2815301,16.5733711 60.7572403,16.6164306 60.1606346,16.6164306 C59.5730683,16.6164306 59.0691173,16.5393768 58.6487815,16.3852691 C58.2284456,16.2311615 57.8849454,16.0067989 57.6182807,15.7121813 C57.351616,15.4175637 57.1572672,15.0594901 57.0352342,14.6379603 C56.9132012,14.2164306 56.8521847,13.7473088 56.8521847,13.2305949 L56.8521847,13.2305949 L64.2148415,13.2305949 C64.5402628,13.2305949 64.7956281,13.1308782 64.9809375,12.9314448 C65.1662468,12.7320113 65.2589015,12.423796 65.2589015,12.0067989 L65.2589015,12.0067989 L65.2589015,11.4628895 C65.2589015,10.6107649 65.1504277,9.82209632 64.9334802,9.09688385 C64.7165327,8.37167139 64.3775522,7.74390935 63.9165387,7.21359773 C63.4555252,6.68328612 62.8656991,6.26855524 62.1470604,5.9694051 C61.4284217,5.67025496 60.5628914,5.52067989 59.5504696,5.52067989 C58.5922847,5.52067989 57.7312742,5.67932011 56.9674381,5.99660057 C56.203602,6.31388102 55.5550193,6.77393768 55.02169,7.37677054 C54.4883606,7.9796034 54.081584,8.71388102 53.8013601,9.5796034 C53.5211362,10.4453258 53.3810243,11.4175637 53.3810243,12.4963173 C53.3810243,13.6294618 53.5143566,14.6175637 53.7810213,15.4606232 C54.047686,16.3036827 54.4522027,17.0016997 54.9945715,17.5546742 C55.5369403,18.1076487 56.2126415,18.5201133 57.021675,18.792068 C57.8307085,19.0640227 58.7730743,19.2 59.8487725,19.2 Z M61.9504517,11.027762 L56.8521847,11.027762 C56.8702637,10.6016997 56.9357999,10.2005666 57.0487934,9.82436261 C57.1617869,9.44815864 57.3244976,9.12181303 57.5369254,8.84532578 C57.7493532,8.56883853 58.0160178,8.3490085 58.3369194,8.18583569 C58.6578209,8.02266289 59.0352193,7.94107649 59.4691143,7.94107649 C60.3278649,7.94107649 60.9628884,8.21529745 61.3741848,8.76373938 C61.7854812,9.3121813 61.9775701,10.0668555 61.9504517,11.027762 L61.9504517,11.027762 Z M70.3295076,18.9688385 C70.6639684,18.9688385 70.9396725,18.9575071 71.1566201,18.9348442 C71.3735676,18.9121813 71.5475776,18.878187 71.6786501,18.8328612 C71.8097225,18.7875354 71.9023772,18.7308782 71.9566141,18.6628895 C72.010851,18.5949008 72.0379694,18.5155807 72.0379694,18.4249292 L72.0379694,18.4249292 L72.0379694,10.8645892 C72.2910749,10.4657224 72.5283612,10.1303116 72.7498285,9.85835694 C72.9712958,9.58640227 73.1837235,9.36883853 73.3871119,9.20566572 C73.5905002,9.04249292 73.7871089,8.9223796 73.976938,8.84532578 C74.166767,8.76827195 74.3565961,8.72974504 74.5464252,8.72974504 C74.7091359,8.72974504 74.8582873,8.74560907 74.9938795,8.77733711 C75.1294717,8.80906516 75.2537646,8.84305949 75.3667581,8.87932011 C75.4797516,8.91558074 75.5814457,8.94957507 75.6718405,8.98130312 C75.7622353,9.01303116 75.8435906,9.02889518 75.9159065,9.02889518 C76.0063013,9.02889518 76.080877,9.00623229 76.1396336,8.96090652 C76.1983903,8.91558074 76.2458475,8.83399433 76.2820054,8.71614731 C76.3181634,8.59830028 76.3452818,8.43512748 76.3633608,8.2266289 C76.3814397,8.01813031 76.3904792,7.75070822 76.3904792,7.42436261 C76.3904792,7.098017 76.3859595,6.83966006 76.37692,6.64929178 C76.3678805,6.45892351 76.3543213,6.31614731 76.3362423,6.22096317 C76.3181634,6.12577904 76.2978245,6.0509915 76.2752258,5.99660057 C76.2526271,5.94220963 76.2164692,5.89235127 76.1667521,5.8470255 C76.1170349,5.80169972 76.0379395,5.75864023 75.9294657,5.71784703 C75.8209919,5.67705382 75.6944392,5.6407932 75.5498075,5.60906516 C75.4051759,5.57733711 75.2650639,5.55467422 75.1294717,5.54107649 C74.9938795,5.52747875 74.8673268,5.52067989 74.7498135,5.52067989 C74.4967081,5.52067989 74.2436026,5.55467422 73.9904972,5.62266289 C73.7373917,5.69065156 73.4842863,5.81076487 73.2311808,5.98300283 C72.9780754,6.15524079 72.7114107,6.38866856 72.4311868,6.68328612 C72.1509629,6.97790368 71.8526601,7.35184136 71.5362782,7.80509915 L71.5362782,7.80509915 L71.5362782,6.29575071 C71.5362782,6.20509915 71.5136795,6.12577904 71.4684821,6.05779037 C71.4232847,5.9898017 71.348709,5.93314448 71.244755,5.8878187 C71.140801,5.84249292 70.9939094,5.80849858 70.8040803,5.78583569 C70.6142512,5.7631728 70.374705,5.75184136 70.0854416,5.75184136 C69.8052178,5.75184136 69.5724511,5.7631728 69.3871418,5.78583569 C69.2018324,5.80849858 69.0504211,5.84249292 68.9329079,5.8878187 C68.8153947,5.93314448 68.7340393,5.9898017 68.6888419,6.05779037 C68.6436445,6.12577904 68.6210458,6.20509915 68.6210458,6.29575071 L68.6210458,6.29575071 L68.6210458,18.4249292 C68.6210458,18.5155807 68.6481643,18.5949008 68.7024011,18.6628895 C68.756638,18.7308782 68.8492927,18.7875354 68.9803652,18.8328612 C69.1114376,18.878187 69.2854476,18.9121813 69.5023952,18.9348442 C69.7193427,18.9575071 69.9950468,18.9688385 70.3295076,18.9688385 Z M88.9050974,18.9688385 C89.2305187,18.9688385 89.503963,18.9575071 89.7254303,18.9348442 C89.9468975,18.9121813 90.1209075,18.878187 90.2474603,18.8328612 C90.374013,18.7875354 90.4644078,18.7308782 90.5186447,18.6628895 C90.5728816,18.5949008 90.6,18.5155807 90.6,18.4249292 L90.6,18.4249292 L90.6,10.9325779 C90.6,10.0532578 90.5231644,9.30084986 90.3694933,8.67535411 C90.2158221,8.04985836 89.9649765,7.50368272 89.6169565,7.0368272 C89.2689365,6.56997167 88.8124428,6.20056657 88.2474752,5.9286119 C87.6825077,5.65665722 86.9887276,5.52067989 86.1661349,5.52067989 C85.415858,5.52067989 84.6949594,5.701983 84.0034392,6.06458924 C83.3119189,6.42719547 82.631698,6.97110482 81.9627765,7.69631728 L81.9627765,7.69631728 L81.9627765,6.29575071 C81.9627765,6.20509915 81.9401778,6.12577904 81.8949804,6.05779037 C81.849783,5.9898017 81.7752073,5.93314448 81.6712533,5.8878187 C81.5672992,5.84249292 81.4204077,5.80849858 81.2305786,5.78583569 C81.0407495,5.7631728 80.8012033,5.75184136 80.5119399,5.75184136 C80.231716,5.75184136 79.9989494,5.7631728 79.81364,5.78583569 C79.6283307,5.80849858 79.4769194,5.84249292 79.3594061,5.8878187 C79.2418929,5.93314448 79.1605376,5.9898017 79.1153402,6.05779037 C79.0701428,6.12577904 79.0475441,6.20509915 79.0475441,6.29575071 L79.0475441,6.29575071 L79.0475441,18.4249292 C79.0475441,18.5155807 79.0746625,18.5949008 79.1288994,18.6628895 C79.1831363,18.7308782 79.275791,18.7875354 79.4068634,18.8328612 C79.5379359,18.878187 79.7119459,18.9121813 79.9288934,18.9348442 C80.1458409,18.9575071 80.4215451,18.9688385 80.7560059,18.9688385 C81.0904666,18.9688385 81.3661708,18.9575071 81.5831183,18.9348442 C81.8000659,18.9121813 81.9740758,18.878187 82.1051483,18.8328612 C82.2362208,18.7875354 82.3288755,18.7308782 82.3831123,18.6628895 C82.4373492,18.5949008 82.4644677,18.5155807 82.4644677,18.4249292 L82.4644677,18.4249292 L82.4644677,10.3614731 C82.9435601,9.75410765 83.4045736,9.2917847 83.8475082,8.97450425 C84.2904427,8.6572238 84.7288575,8.49858357 85.1627526,8.49858357 C85.5062528,8.49858357 85.8068155,8.56430595 86.0644407,8.69575071 C86.3220659,8.82719547 86.5322338,9.01303116 86.6949445,9.25325779 C86.8576551,9.49348442 86.981948,9.78130312 87.067823,10.1167139 C87.1536981,10.4521246 87.1966356,10.9144476 87.1966356,11.5036827 L87.1966356,11.5036827 L87.1966356,18.4249292 C87.1966356,18.5155807 87.2237541,18.5949008 87.277991,18.6628895 C87.3322278,18.7308782 87.4226226,18.7875354 87.5491754,18.8328612 C87.6757281,18.878187 87.8497381,18.9121813 88.0712054,18.9348442 C88.2926726,18.9575071 88.5706367,18.9688385 88.9050974,18.9688385 Z" id="modern" fill="#707070"></path>
                    <path d="M98.1619967,19.3016345 C98.9051508,19.3016345 99.594583,19.2118128 100.230293,19.0321694 C100.866003,18.852526 101.416654,18.5830609 101.882244,18.2237741 C102.347835,17.8644874 102.70822,17.417682 102.963399,16.8833581 C103.218579,16.3490342 103.346169,15.7317979 103.346169,15.0316493 C103.346169,14.469688 103.261109,13.9837296 103.090989,13.5737741 C102.92087,13.1638187 102.697028,12.8114413 102.419464,12.5166419 C102.141901,12.2218425 101.826284,11.9731055 101.472614,11.7704309 C101.118944,11.5677563 100.760798,11.390416 100.398174,11.2384101 C100.035551,11.0864042 99.6774044,10.9459138 99.3237347,10.8169391 C98.9700649,10.6879643 98.6544482,10.5497771 98.3768846,10.4023774 C98.099321,10.2549777 97.8754794,10.0845468 97.7053598,9.8910847 C97.5352401,9.69762259 97.4501803,9.45809807 97.4501803,9.17251114 C97.4501803,8.98826152 97.485995,8.81552749 97.5576243,8.65430906 C97.6292536,8.49309064 97.7366976,8.3526003 97.8799562,8.23283804 C98.0232149,8.11307578 98.206765,8.02095097 98.4306066,7.9564636 C98.6544482,7.89197623 98.9185813,7.85973254 99.2230059,7.85973254 C99.6527819,7.85973254 100.035551,7.90809807 100.371313,8.00482912 C100.707076,8.10156018 101.002547,8.20520059 101.257726,8.31575037 C101.512906,8.42630015 101.725555,8.52994056 101.895675,8.62667162 C102.065795,8.72340267 102.191146,8.7717682 102.271729,8.7717682 C102.343358,8.7717682 102.406034,8.75564636 102.459756,8.72340267 C102.513478,8.69115899 102.556008,8.62897474 102.587345,8.53684993 C102.618683,8.44472511 102.641067,8.32035661 102.654498,8.16374443 C102.667928,8.00713224 102.674644,7.80445765 102.674644,7.55572065 C102.674644,7.34383358 102.667928,7.16649331 102.654498,7.02369985 C102.641067,6.88090639 102.625399,6.76114413 102.607491,6.66441308 C102.589584,6.56768202 102.562723,6.48476969 102.526908,6.41567608 C102.491094,6.34658247 102.430656,6.27748886 102.345597,6.20839525 C102.260537,6.13930163 102.119517,6.0563893 101.922536,5.95965825 C101.725555,5.86292719 101.483806,5.7731055 101.197289,5.69019316 C100.910772,5.60728083 100.590678,5.53818722 100.237008,5.48291233 C99.8833387,5.42763744 99.5184769,5.4 99.142423,5.4 C98.3903151,5.4 97.712075,5.49673105 97.1077026,5.69019316 C96.5033303,5.88365527 95.990733,6.15542348 95.5699107,6.50549777 C95.1490885,6.85557207 94.8267565,7.27704309 94.6029149,7.76991085 C94.3790733,8.2627786 94.2671525,8.80401189 94.2671525,9.3936107 C94.2671525,9.97399703 94.3499739,10.471471 94.5156167,10.8860327 C94.6812595,11.3005944 94.9006243,11.6552749 95.173711,11.9500743 C95.4467978,12.2448737 95.7556993,12.4936107 96.1004154,12.6962853 C96.4451314,12.8989599 96.7988012,13.0786033 97.1614246,13.2352155 C97.5240481,13.3918276 97.8777178,13.5346211 98.2224339,13.6635958 C98.56715,13.7925706 98.8760514,13.9307578 99.1491382,14.0781575 C99.422225,14.2255572 99.6415898,14.3982912 99.8072326,14.5963596 C99.9728754,14.7944279 100.055697,15.0316493 100.055697,15.3080238 C100.055697,15.5475483 100.010928,15.7594354 99.9213918,15.943685 C99.8318551,16.1279346 99.6997886,16.2799406 99.5251921,16.3997028 C99.3505957,16.5194651 99.1446614,16.6115899 98.9073893,16.6760773 C98.6701171,16.7405646 98.3992688,16.7728083 98.0948442,16.7728083 C97.6113463,16.7728083 97.179332,16.7129272 96.7988012,16.5931649 C96.4182705,16.4734027 96.0847464,16.3444279 95.7982292,16.2062407 C95.5117119,16.0680535 95.2722014,15.9413819 95.0796976,15.8262259 C94.8871938,15.7110698 94.7416967,15.6534918 94.6432064,15.6534918 C94.5626234,15.6534918 94.4954709,15.6696137 94.4417489,15.7018574 C94.388027,15.734101 94.3432586,15.7985884 94.307444,15.8953195 C94.2716293,15.9920505 94.2447683,16.1210253 94.226861,16.2822437 C94.2089537,16.4434621 94.2,16.6576523 94.2,16.9248143 C94.2,17.3301634 94.226861,17.6364785 94.280583,17.8437593 C94.334305,18.0510401 94.4104111,18.2030461 94.5089014,18.2997771 C94.6073917,18.3965082 94.7640809,18.5001486 94.9789688,18.6106984 C95.1938568,18.7212481 95.4624667,18.8294948 95.7847987,18.9354383 C96.1071306,19.0413819 96.4719924,19.1289004 96.8793842,19.1979941 C97.2867759,19.2670877 97.7143134,19.3016345 98.1619967,19.3016345 Z M108.126888,24 C108.458174,24 108.731261,23.9861813 108.946149,23.9585438 C109.161037,23.9309064 109.333395,23.8917533 109.463223,23.8410847 C109.593051,23.790416 109.684826,23.7282318 109.738548,23.6545319 C109.79227,23.5808321 109.819131,23.4979198 109.819131,23.4057949 L109.819131,23.4057949 L109.819131,17.6019316 C110.105648,17.8875186 110.383212,18.1362556 110.651822,18.3481426 C110.920432,18.5600297 111.19128,18.73737 111.464367,18.8801634 C111.737454,19.0229569 112.019494,19.1289004 112.310488,19.1979941 C112.601482,19.2670877 112.921576,19.3016345 113.270769,19.3016345 C114.112413,19.3016345 114.860044,19.1358098 115.513662,18.8041605 C116.167279,18.4725111 116.713453,17.9980684 117.152182,17.3808321 C117.590912,16.7635958 117.924436,16.0150817 118.152754,15.1352897 C118.381073,14.2554978 118.495232,13.2674591 118.495232,12.1711738 C118.495232,11.2407132 118.405696,10.3655275 118.226622,9.54561664 C118.047549,8.72570579 117.76327,8.00713224 117.373786,7.38989599 C116.984301,6.77265973 116.480658,6.28670134 115.862855,5.9320208 C115.245052,5.57734027 114.497421,5.4 113.619962,5.4 C113.199139,5.4 112.80294,5.44606241 112.431363,5.53818722 C112.059786,5.63031204 111.699401,5.77080238 111.350208,5.95965825 C111.001015,6.14851412 110.658537,6.38343239 110.322775,6.66441308 C109.987012,6.94539376 109.644535,7.27013373 109.295342,7.63863299 L109.295342,7.63863299 L109.295342,6.18766716 C109.295342,6.09554235 109.272957,6.01493314 109.228189,5.94583952 C109.183421,5.87674591 109.105076,5.8191679 108.993155,5.7731055 C108.881235,5.72704309 108.733499,5.69249629 108.549949,5.66946508 C108.366399,5.64643388 108.140319,5.63491828 107.871709,5.63491828 C107.594145,5.63491828 107.363588,5.64643388 107.180038,5.66946508 C106.996488,5.69249629 106.848753,5.72704309 106.736832,5.7731055 C106.624911,5.8191679 106.546567,5.87674591 106.501798,5.94583952 C106.45703,6.01493314 106.434646,6.09554235 106.434646,6.18766716 L106.434646,6.18766716 L106.434646,23.4057949 C106.434646,23.4979198 106.461507,23.5808321 106.515229,23.6545319 C106.568951,23.7282318 106.660726,23.790416 106.790554,23.8410847 C106.920382,23.8917533 107.09274,23.9309064 107.307628,23.9585438 C107.522516,23.9861813 107.795603,24 108.126888,24 Z M112.518661,16.3444279 C112.05307,16.3444279 111.605387,16.1763001 111.175611,15.8400446 C110.745835,15.503789 110.293675,15.0270431 109.819131,14.4098068 L109.819131,14.4098068 L109.819131,10.3471025 C110.087741,9.97860327 110.34292,9.66998514 110.584669,9.42124814 C110.826418,9.17251114 111.061452,8.96983655 111.28977,8.81322437 C111.518089,8.65661218 111.741931,8.54375929 111.961295,8.47466568 C112.18066,8.40557207 112.402263,8.37102526 112.626105,8.37102526 C113.073788,8.37102526 113.447604,8.48387816 113.747551,8.70958395 C114.047499,8.93528975 114.289248,9.23699851 114.472798,9.61471025 C114.656348,9.99242199 114.786177,10.4231055 114.862283,10.9067608 C114.938389,11.390416 114.976442,11.8947994 114.976442,12.4199108 C114.976442,12.8897474 114.929435,13.359584 114.835422,13.8294205 C114.741408,14.2992571 114.595911,14.7207281 114.398931,15.0938336 C114.20195,15.4669391 113.949009,15.7686478 113.640107,15.9989599 C113.331206,16.2292719 112.957391,16.3444279 112.518661,16.3444279 Z M125.37111,19.3016345 C126.141125,19.3016345 126.841749,19.1496285 127.472982,18.8456166 C128.104216,18.5416048 128.666058,18.1178306 129.15851,17.5742942 L129.15851,17.5742942 L129.15851,18.5554235 C129.15851,18.6843982 129.196563,18.7857355 129.272669,18.8594354 C129.348775,18.9331352 129.478603,18.986107 129.662153,19.0183507 C129.845703,19.0505944 130.138936,19.0667162 130.541851,19.0667162 C130.917905,19.0667162 131.202184,19.0505944 131.394687,19.0183507 C131.587191,18.986107 131.728212,18.9331352 131.817748,18.8594354 C131.907285,18.7857355 131.952053,18.6843982 131.952053,18.5554235 L131.952053,18.5554235 L131.952053,10.2641902 C131.952053,9.4166419 131.853563,8.68424963 131.656582,8.06701337 C131.459602,7.44977712 131.146223,6.94539376 130.716447,6.5538633 C130.286671,6.16233284 129.73826,5.87213967 129.071211,5.6832838 C128.404163,5.49442793 127.600572,5.4 126.660437,5.4 C126.132171,5.4 125.619574,5.44375929 125.122645,5.53127786 C124.625717,5.61879643 124.166842,5.73164933 123.746019,5.86983655 C123.325197,6.00802377 122.958097,6.1577266 122.644719,6.31894502 C122.33134,6.48016345 122.111976,6.62756315 121.986624,6.76114413 C121.861273,6.89472511 121.776213,7.04442793 121.731445,7.2102526 C121.686676,7.37607727 121.664292,7.60178306 121.664292,7.88736999 C121.664292,8.09925706 121.677723,8.29271917 121.704584,8.46775632 C121.731445,8.64279346 121.769498,8.79019316 121.818743,8.90995542 C121.867988,9.02971768 121.930664,9.1218425 122.00677,9.18632987 C122.082876,9.25081724 122.170174,9.28306092 122.268665,9.28306092 C122.411923,9.28306092 122.597712,9.21857355 122.82603,9.08959881 C123.054349,8.96062407 123.338628,8.81783061 123.678867,8.66121842 C124.019106,8.50460624 124.410829,8.36181278 124.854035,8.23283804 C125.297242,8.1038633 125.800885,8.03937593 126.364966,8.03937593 C126.794742,8.03937593 127.155127,8.08543834 127.446121,8.17756315 C127.737115,8.26968796 127.969911,8.41248143 128.144507,8.60594354 C128.319104,8.79940565 128.444455,9.04123328 128.520561,9.33142645 C128.596667,9.62161961 128.63472,9.96017831 128.63472,10.3471025 L128.63472,10.3471025 L128.63472,11.0933135 L127.466267,11.0933135 C126.400781,11.0933135 125.465123,11.1762259 124.659293,11.3420505 C123.853463,11.5078752 123.1797,11.7635215 122.638003,12.1089896 C122.096307,12.4544577 121.688915,12.8920505 121.415828,13.4217682 C121.142741,13.9514859 121.006198,14.5756315 121.006198,15.2942051 C121.006198,15.9575037 121.113642,16.53789 121.32853,17.035364 C121.543418,17.532838 121.845604,17.9497028 122.235088,18.2859584 C122.624573,18.622214 123.085687,18.8755572 123.61843,19.0459881 C124.151173,19.216419 124.735399,19.3016345 125.37111,19.3016345 Z M126.109787,16.8419019 C125.545706,16.8419019 125.104738,16.6945022 124.786883,16.3997028 C124.469028,16.1049034 124.3101,15.6995542 124.3101,15.1836553 C124.3101,14.8796434 124.366061,14.6101783 124.477981,14.37526 C124.589902,14.1403418 124.766737,13.9399703 125.008486,13.7741456 C125.250235,13.608321 125.563613,13.4839525 125.948621,13.4010401 C126.333628,13.3181278 126.799219,13.2766716 127.345393,13.2766716 L127.345393,13.2766716 L128.63472,13.2766716 L128.63472,15.3771174 C128.222852,15.8561664 127.817698,16.2200594 127.41926,16.4687964 C127.020822,16.7175334 126.584331,16.8419019 126.109787,16.8419019 Z M140.855936,19.2878158 C141.267804,19.2878158 141.668481,19.2509658 142.057965,19.177266 C142.447449,19.1035661 142.807834,19.0068351 143.13912,18.8870728 C143.470406,18.7673105 143.765877,18.6314264 144.025533,18.4794205 C144.285189,18.3274146 144.468739,18.1984398 144.576183,18.0924963 C144.683627,17.9865527 144.753018,17.8990342 144.784356,17.8299406 C144.815694,17.760847 144.842555,17.6710253 144.864939,17.5604755 C144.887323,17.4499257 144.90523,17.3140416 144.918661,17.1528232 C144.932091,16.9916048 144.938807,16.7912333 144.938807,16.5517088 C144.938807,16.2476969 144.929853,15.9989599 144.911946,15.8054978 C144.894038,15.6120357 144.869416,15.4531204 144.838078,15.3287519 C144.80674,15.2043834 144.76421,15.1191679 144.710488,15.0731055 C144.656766,15.0270431 144.589614,15.0040119 144.509031,15.0040119 C144.392633,15.0040119 144.249374,15.0754086 144.079255,15.2182021 C143.909135,15.3609955 143.698724,15.5199108 143.448021,15.694948 C143.197319,15.8699851 142.904086,16.0289004 142.568324,16.1716939 C142.232561,16.3144874 141.831885,16.3858841 141.366294,16.3858841 C140.909658,16.3858841 140.508981,16.3006686 140.164265,16.1302377 C139.819549,15.9598068 139.533032,15.7041605 139.304713,15.3632987 C139.076395,15.0224368 138.904037,14.5986627 138.787639,14.0919762 C138.671241,13.5852897 138.613043,13.0002972 138.613043,12.3369985 C138.613043,10.9919762 138.845838,9.97169391 139.311428,9.27615156 C139.777019,8.58060921 140.448544,8.23283804 141.326003,8.23283804 C141.773686,8.23283804 142.158694,8.29732541 142.481026,8.42630015 C142.803358,8.55527489 143.080921,8.69806835 143.313717,8.85468053 C143.546512,9.01129272 143.747969,9.15408618 143.918089,9.28306092 C144.088209,9.41203566 144.249374,9.47652303 144.401587,9.47652303 C144.544845,9.47652303 144.661243,9.36827637 144.75078,9.15178306 C144.840316,8.93528975 144.885085,8.55988113 144.885085,8.02555721 C144.885085,7.79524517 144.878369,7.59947994 144.864939,7.43826152 C144.851508,7.27704309 144.833601,7.14115899 144.811217,7.03060921 C144.788833,6.92005944 144.757495,6.83023774 144.717203,6.76114413 C144.676912,6.69205052 144.607521,6.60683507 144.509031,6.50549777 C144.41054,6.40416048 144.242659,6.28439822 144.005387,6.146211 C143.768115,6.00802377 143.499505,5.88365527 143.199557,5.7731055 C142.89961,5.66255572 142.577278,5.57503715 142.232561,5.51054978 C141.887845,5.44606241 141.536414,5.41381872 141.178267,5.41381872 C140.300808,5.41381872 139.494978,5.55661218 138.760778,5.84219911 C138.026577,6.12778603 137.390867,6.5653789 136.853647,7.15497771 C136.316427,7.74457652 135.897844,8.4884844 135.597896,9.38670134 C135.297948,10.2849183 135.147974,11.351263 135.147974,12.5857355 C135.147974,13.6543834 135.271087,14.6032689 135.517313,15.4323923 C135.763539,16.2615156 136.128401,16.9639673 136.611898,17.5397474 C137.095396,18.1155275 137.693053,18.5508172 138.40487,18.8456166 C139.116686,19.140416 139.933708,19.2878158 140.855936,19.2878158 Z M153.641232,19.3016345 C154.232174,19.3016345 154.787301,19.2624814 155.306613,19.1841753 C155.825926,19.1058692 156.28704,19.0137444 156.689954,18.9078009 C157.092869,18.8018574 157.424155,18.6936107 157.683811,18.5830609 C157.943468,18.4725111 158.102395,18.3849926 158.160594,18.3205052 C158.218793,18.2560178 158.265799,18.1892273 158.301614,18.1201337 C158.337429,18.0510401 158.36429,17.9658247 158.382197,17.8644874 C158.400104,17.7631501 158.413535,17.6410847 158.422489,17.4982912 C158.431442,17.3554978 158.435919,17.1827637 158.435919,16.9800892 C158.435919,16.7497771 158.429204,16.5586181 158.415773,16.4066122 C158.402343,16.2546062 158.37772,16.1371471 158.341906,16.0542348 C158.306091,15.9713224 158.261323,15.9137444 158.207601,15.8815007 C158.153879,15.8492571 158.086726,15.8331352 158.006143,15.8331352 C157.871838,15.8331352 157.697242,15.8768945 157.482354,15.9644131 C157.267466,16.0519316 156.996618,16.1486627 156.669809,16.2546062 C156.343,16.3605498 155.955754,16.4572808 155.508071,16.5447994 C155.060387,16.632318 154.541075,16.6760773 153.950133,16.6760773 C153.368145,16.6760773 152.868978,16.5977712 152.452633,16.441159 C152.036287,16.2845468 151.696048,16.0565379 151.431915,15.7571322 C151.167782,15.4577266 150.975278,15.0938336 150.854403,14.6654532 C150.733529,14.2370728 150.673092,13.7603269 150.673092,13.2352155 L150.673092,13.2352155 L157.965852,13.2352155 C158.288184,13.2352155 158.541125,13.1338782 158.724675,12.9312036 C158.908225,12.728529 159,12.4153046 159,11.9915305 L159,11.9915305 L159,11.4387816 C159,10.5728083 158.892556,9.77132244 158.677668,9.03432392 C158.46278,8.29732541 158.127018,7.65936107 157.670381,7.12043091 C157.213744,6.58150074 156.629517,6.16002972 155.917701,5.85601783 C155.205885,5.55200594 154.348571,5.4 153.345761,5.4 C152.396672,5.4 151.543836,5.56121842 150.787251,5.88365527 C150.030666,6.20609212 149.388241,6.67362556 148.859975,7.28625557 C148.331708,7.89888559 147.928793,8.64509658 147.65123,9.52488856 C147.373666,10.4046805 147.234884,11.3927192 147.234884,12.4890045 C147.234884,13.6405646 147.366951,14.6447251 147.631084,15.5014859 C147.895217,16.3582467 148.295894,17.0676077 148.833114,17.6295691 C149.370334,18.1915305 150.03962,18.6106984 150.840973,18.8870728 C151.642326,19.1634473 152.575746,19.3016345 153.641232,19.3016345 Z M155.722959,10.9965825 L150.673092,10.9965825 C150.690999,10.5635958 150.755913,10.1559435 150.867834,9.77362556 C150.979755,9.39130758 151.140921,9.05965825 151.351332,8.77867756 C151.561743,8.49769688 151.825876,8.27429421 152.143731,8.10846954 C152.461586,7.94264487 152.835402,7.85973254 153.265178,7.85973254 C154.115776,7.85973254 154.744771,8.1384101 155.152163,8.69576523 C155.559554,9.25312036 155.74982,10.0200594 155.722959,10.9965825 L155.722959,10.9965825 Z" id="space" fill="#F54241"></path>
                </g>
            </g>
        </g>
    </g>
</svg>