<?xml version="1.0" encoding="UTF-8"?>
<svg width="418px" height="98px" viewBox="0 0 418 98" version="1.1" xmlns="http://www.w3.org/2000/svg" xmlns:xlink="http://www.w3.org/1999/xlink">
    <title>Group Copy 16</title>
    <g id="Page-1" stroke="none" stroke-width="1" fill="none" fill-rule="evenodd">
        <g id="Group-Copy-16" fill-rule="nonzero">
            <g id="modernspace" transform="translate(1.614258, 0.133301)">
                <path d="M47.3876953,51.0864258 C48.2910156,51.0864258 49.0356445,51.0559082 49.621582,50.994873 C50.2075195,50.9338379 50.6713867,50.8422852 51.0131836,50.7202148 C51.3549805,50.5981445 51.5991211,50.4455566 51.7456055,50.2624512 C51.8920898,50.0793457 51.965332,49.8657227 51.965332,49.621582 L51.965332,49.621582 L51.965332,28.7109375 C51.965332,26.8310547 51.7700195,25.0488281 51.3793945,23.3642578 C50.9887695,21.6796875 50.3356934,20.2087402 49.420166,18.951416 C48.5046387,17.6940918 47.3022461,16.6992188 45.8129883,15.9667969 C44.3237305,15.234375 42.4926758,14.8681641 40.3198242,14.8681641 C39.3676758,14.8681641 38.4338379,14.9841309 37.5183105,15.2160645 C36.6027832,15.447998 35.6872559,15.802002 34.7717285,16.2780762 C33.8562012,16.7541504 32.9284668,17.3706055 31.9885254,18.1274414 C31.048584,18.8842773 30.090332,19.7875977 29.1137695,20.8374023 C28.6987305,19.934082 28.1860352,19.1162109 27.5756836,18.3837891 C26.965332,17.6513672 26.2390137,17.0227051 25.3967285,16.4978027 C24.5544434,15.9729004 23.5961914,15.5700684 22.5219727,15.2893066 C21.4477539,15.0085449 20.2392578,14.8681641 18.8964844,14.8681641 C16.9433594,14.8681641 15.0695801,15.3564453 13.2751465,16.3330078 C11.4807129,17.3095703 9.68017578,18.7744141 7.87353516,20.7275391 L7.87353516,20.7275391 L7.87353516,16.9555664 C7.87353516,16.7114258 7.8125,16.4978027 7.69042969,16.3146973 C7.56835937,16.1315918 7.36694336,15.9790039 7.08618164,15.8569336 C6.80541992,15.7348633 6.40869141,15.6433105 5.89599609,15.5822754 C5.38330078,15.5212402 4.73632812,15.4907227 3.95507812,15.4907227 C3.19824219,15.4907227 2.56958008,15.5212402 2.0690918,15.5822754 C1.56860352,15.6433105 1.15966797,15.7348633 0.842285156,15.8569336 C0.524902344,15.9790039 0.305175781,16.1315918 0.183105469,16.3146973 C0.0610351562,16.4978027 0,16.7114258 0,16.9555664 L0,16.9555664 L0,49.621582 C0,49.8657227 0.0732421875,50.0793457 0.219726562,50.2624512 C0.366210938,50.4455566 0.616455078,50.5981445 0.970458984,50.7202148 C1.32446289,50.8422852 1.79443359,50.9338379 2.38037109,50.994873 C2.96630859,51.0559082 3.7109375,51.0864258 4.61425781,51.0864258 C5.51757812,51.0864258 6.26220703,51.0559082 6.84814453,50.994873 C7.43408203,50.9338379 7.90405273,50.8422852 8.25805664,50.7202148 C8.61206055,50.5981445 8.86230469,50.4455566 9.00878906,50.2624512 C9.15527344,50.0793457 9.22851562,49.8657227 9.22851562,49.621582 L9.22851562,49.621582 L9.22851562,27.9052734 C10.5224609,26.2695312 11.730957,25.0244141 12.8540039,24.1699219 C13.9770508,23.3154297 15.1000977,22.8881836 16.2231445,22.8881836 C17.1020508,22.8881836 17.8710938,23.0651855 18.5302734,23.4191895 C19.1894531,23.7731934 19.7265625,24.2736816 20.1416016,24.9206543 C20.5566406,25.567627 20.8679199,26.3427734 21.0754395,27.2460938 C21.282959,28.1494141 21.3867188,29.1503906 21.3867188,30.2490234 L21.3867188,30.2490234 L21.3867188,49.621582 C21.3867188,49.8657227 21.4599609,50.0793457 21.6064453,50.2624512 C21.7529297,50.4455566 22.0031738,50.5981445 22.3571777,50.7202148 C22.7111816,50.8422852 23.1811523,50.9338379 23.7670898,50.994873 C24.3530273,51.0559082 25.0976562,51.0864258 26.0009766,51.0864258 C26.8798828,51.0864258 27.6123047,51.0559082 28.1982422,50.994873 C28.7841797,50.9338379 29.2541504,50.8422852 29.6081543,50.7202148 C29.9621582,50.5981445 30.2124023,50.4455566 30.3588867,50.2624512 C30.5053711,50.0793457 30.5786133,49.8657227 30.5786133,49.621582 L30.5786133,49.621582 L30.5786133,27.9052734 C31.8969727,26.2695312 33.1176758,25.0244141 34.2407227,24.1699219 C35.3637695,23.3154297 36.4746094,22.8881836 37.5732422,22.8881836 C38.4765625,22.8881836 39.251709,23.0651855 39.8986816,23.4191895 C40.5456543,23.7731934 41.0827637,24.2736816 41.5100098,24.9206543 C41.9372559,25.567627 42.2546387,26.3427734 42.4621582,27.2460938 C42.6696777,28.1494141 42.7734375,29.1503906 42.7734375,30.2490234 L42.7734375,30.2490234 L42.7734375,49.621582 C42.7734375,49.8657227 42.8405762,50.0793457 42.9748535,50.2624512 C43.1091309,50.4455566 43.3532715,50.5981445 43.7072754,50.7202148 C44.0612793,50.8422852 44.53125,50.9338379 45.1171875,50.994873 C45.703125,51.0559082 46.4599609,51.0864258 47.3876953,51.0864258 Z M76.1352539,51.7089844 C79.1381836,51.7089844 81.7626953,51.2573242 84.0087891,50.3540039 C86.2548828,49.4506836 88.1225586,48.1689453 89.6118164,46.5087891 C91.1010742,44.8486328 92.2119141,42.8710938 92.9443359,40.5761719 C93.6767578,38.28125 94.0429688,35.7421875 94.0429688,32.9589844 C94.0429688,30.0537109 93.7011719,27.4780273 93.0175781,25.2319336 C92.3339844,22.9858398 91.2902832,21.09375 89.8864746,19.5556641 C88.482666,18.0175781 86.706543,16.8518066 84.5581055,16.0583496 C82.409668,15.2648926 79.8706055,14.8681641 76.940918,14.8681641 C73.9379883,14.8681641 71.3195801,15.3198242 69.0856934,16.2231445 C66.8518066,17.1264648 64.9902344,18.4020996 63.5009766,20.0500488 C62.0117188,21.697998 60.8947754,23.6755371 60.1501465,25.982666 C59.4055176,28.2897949 59.0332031,30.8349609 59.0332031,33.6181641 C59.0332031,36.4990234 59.375,39.0625 60.0585938,41.3085938 C60.7421875,43.5546875 61.7919922,45.4467773 63.2080078,46.9848633 C64.6240234,48.5229492 66.40625,49.6948242 68.5546875,50.5004883 C70.703125,51.3061523 73.2299805,51.7089844 76.1352539,51.7089844 Z M76.4648438,44.3481445 C74.9511719,44.3481445 73.6816406,44.0734863 72.65625,43.5241699 C71.6308594,42.9748535 70.8190918,42.199707 70.2209473,41.1987305 C69.6228027,40.1977539 69.1894531,39.0197754 68.9208984,37.6647949 C68.6523438,36.3098145 68.5180664,34.8266602 68.5180664,33.215332 C68.5180664,31.4819336 68.6828613,29.9377441 69.0124512,28.5827637 C69.342041,27.2277832 69.8364258,26.0681152 70.4956055,25.1037598 C71.1547852,24.1394043 71.9970703,23.4069824 73.0224609,22.9064941 C74.0478516,22.4060059 75.2441406,22.1557617 76.6113281,22.1557617 C78.1494141,22.1557617 79.4250488,22.4365234 80.4382324,22.9980469 C81.451416,23.5595703 82.2631836,24.3408203 82.8735352,25.3417969 C83.4838867,26.3427734 83.9172363,27.520752 84.173584,28.8757324 C84.4299316,30.2307129 84.5581055,31.7138672 84.5581055,33.3251953 C84.5581055,35.0585938 84.3994141,36.6027832 84.0820312,37.9577637 C83.7646484,39.3127441 83.2763672,40.4663086 82.6171875,41.418457 C81.9580078,42.3706055 81.1157227,43.0969238 80.090332,43.5974121 C79.0649414,44.0979004 77.8564453,44.3481445 76.4648438,44.3481445 Z M113.085938,51.7089844 C115.332031,51.7089844 117.376709,51.2084961 119.219971,50.2075195 C121.063232,49.206543 122.827148,47.8027344 124.511719,45.9960938 L124.511719,45.9960938 L124.511719,49.621582 C124.511719,49.8901367 124.578857,50.1159668 124.713135,50.2990723 C124.847412,50.4821777 125.067139,50.6347656 125.372314,50.7568359 C125.67749,50.8789062 126.074219,50.9643555 126.5625,51.0131836 C127.050781,51.0620117 127.685547,51.0864258 128.466797,51.0864258 C129.199219,51.0864258 129.815674,51.0620117 130.316162,51.0131836 C130.81665,50.9643555 131.213379,50.8789062 131.506348,50.7568359 C131.799316,50.6347656 132.006836,50.4821777 132.128906,50.2990723 C132.250977,50.1159668 132.312012,49.8901367 132.312012,49.621582 L132.312012,49.621582 L132.312012,1.57470703 C132.312012,1.33056641 132.23877,1.11083984 132.092285,0.915527344 C131.945801,0.720214844 131.70166,0.555419922 131.359863,0.421142578 C131.018066,0.286865234 130.554199,0.183105469 129.968262,0.109863281 C129.382324,0.0366210938 128.637695,0 127.734375,0 C126.831055,0 126.086426,0.0366210938 125.500488,0.109863281 C124.914551,0.183105469 124.44458,0.286865234 124.090576,0.421142578 C123.736572,0.555419922 123.492432,0.720214844 123.358154,0.915527344 C123.223877,1.11083984 123.156738,1.33056641 123.156738,1.57470703 L123.156738,1.57470703 L123.156738,19.2626953 C121.691895,17.8222656 120.214844,16.7297363 118.725586,15.9851074 C117.236328,15.2404785 115.576172,14.8681641 113.745117,14.8681641 C111.425781,14.8681641 109.375,15.3076172 107.592773,16.1865234 C105.810547,17.0654297 104.321289,18.3227539 103.125,19.9584961 C101.928711,21.5942383 101.019287,23.5717773 100.396729,25.8911133 C99.7741699,28.2104492 99.4628906,30.8227539 99.4628906,33.7280273 C99.4628906,36.1450195 99.7070312,38.4460449 100.195312,40.6311035 C100.683594,42.8161621 101.470947,44.7265625 102.557373,46.3623047 C103.643799,47.9980469 105.047607,49.2980957 106.768799,50.2624512 C108.48999,51.2268066 110.595703,51.7089844 113.085938,51.7089844 Z M115.393066,43.9086914 C114.123535,43.9086914 113.07373,43.6035156 112.243652,42.9931641 C111.413574,42.3828125 110.748291,41.5710449 110.247803,40.5578613 C109.747314,39.5446777 109.387207,38.3911133 109.16748,37.097168 C108.947754,35.8032227 108.837891,34.4726562 108.837891,33.1054688 C108.837891,31.8115234 108.966064,30.5480957 109.222412,29.3151855 C109.47876,28.0822754 109.869385,26.965332 110.394287,25.9643555 C110.919189,24.9633789 111.61499,24.1638184 112.481689,23.5656738 C113.348389,22.9675293 114.379883,22.668457 115.576172,22.668457 C116.894531,22.668457 118.157959,23.1079102 119.366455,23.9868164 C120.574951,24.8657227 121.838379,26.1352539 123.156738,27.7954102 L123.156738,27.7954102 L123.156738,38.6352539 C122.375488,39.6118164 121.655273,40.435791 120.996094,41.1071777 C120.336914,41.7785645 119.696045,42.3217773 119.073486,42.7368164 C118.450928,43.1518555 117.840576,43.4509277 117.242432,43.6340332 C116.644287,43.8171387 116.027832,43.9086914 115.393066,43.9086914 Z M157.141113,51.7089844 C158.752441,51.7089844 160.266113,51.6052246 161.682129,51.3977051 C163.098145,51.1901855 164.355469,50.9460449 165.454102,50.6652832 C166.552734,50.3845215 167.456055,50.0976562 168.164062,49.8046875 C168.87207,49.5117188 169.30542,49.2797852 169.464111,49.1088867 C169.622803,48.9379883 169.750977,48.7609863 169.848633,48.5778809 C169.946289,48.3947754 170.019531,48.1689453 170.068359,47.9003906 C170.117188,47.6318359 170.153809,47.3083496 170.178223,46.9299316 C170.202637,46.5515137 170.214844,46.09375 170.214844,45.5566406 C170.214844,44.9462891 170.196533,44.4396973 170.159912,44.0368652 C170.123291,43.6340332 170.056152,43.3227539 169.958496,43.1030273 C169.86084,42.8833008 169.73877,42.7307129 169.592285,42.6452637 C169.445801,42.5598145 169.262695,42.5170898 169.042969,42.5170898 C168.676758,42.5170898 168.200684,42.6330566 167.614746,42.8649902 C167.028809,43.0969238 166.290283,43.3532715 165.39917,43.6340332 C164.508057,43.9147949 163.452148,44.1711426 162.231445,44.4030762 C161.010742,44.6350098 159.594727,44.7509766 157.983398,44.7509766 C156.396484,44.7509766 155.0354,44.543457 153.900146,44.128418 C152.764893,43.7133789 151.837158,43.1091309 151.116943,42.3156738 C150.396729,41.5222168 149.871826,40.5578613 149.542236,39.4226074 C149.212646,38.2873535 149.047852,37.0239258 149.047852,35.6323242 L149.047852,35.6323242 L168.933105,35.6323242 C169.812012,35.6323242 170.501709,35.3637695 171.002197,34.8266602 C171.502686,34.2895508 171.75293,33.4594727 171.75293,32.3364258 L171.75293,32.3364258 L171.75293,30.871582 C171.75293,28.5766602 171.459961,26.4526367 170.874023,24.4995117 C170.288086,22.5463867 169.372559,20.8557129 168.127441,19.4274902 C166.882324,17.9992676 165.289307,16.8823242 163.348389,16.0766602 C161.407471,15.2709961 159.069824,14.8681641 156.335449,14.8681641 C153.747559,14.8681641 151.422119,15.2954102 149.359131,16.1499023 C147.296143,17.0043945 145.544434,18.2434082 144.104004,19.8669434 C142.663574,21.4904785 141.564941,23.4680176 140.808105,25.7995605 C140.05127,28.1311035 139.672852,30.7495117 139.672852,33.6547852 C139.672852,36.706543 140.032959,39.3676758 140.753174,41.6381836 C141.473389,43.9086914 142.565918,45.7885742 144.030762,47.277832 C145.495605,48.7670898 147.320557,49.8779297 149.505615,50.6103516 C151.690674,51.3427734 154.23584,51.7089844 157.141113,51.7089844 Z M162.817383,29.699707 L149.047852,29.699707 C149.09668,28.5522461 149.273682,27.4719238 149.578857,26.4587402 C149.884033,25.4455566 150.323486,24.5666504 150.897217,23.8220215 C151.470947,23.0773926 152.191162,22.4853516 153.057861,22.0458984 C153.924561,21.6064453 154.943848,21.3867188 156.115723,21.3867188 C158.435059,21.3867188 160.150146,22.1252441 161.260986,23.6022949 C162.371826,25.0793457 162.890625,27.1118164 162.817383,29.699707 L162.817383,29.699707 Z M183.947754,51.0864258 C184.851074,51.0864258 185.595703,51.0559082 186.181641,50.994873 C186.767578,50.9338379 187.237549,50.8422852 187.591553,50.7202148 C187.945557,50.5981445 188.195801,50.4455566 188.342285,50.2624512 C188.48877,50.0793457 188.562012,49.8657227 188.562012,49.621582 L188.562012,49.621582 L188.562012,29.2602539 C189.245605,28.1860352 189.886475,27.2827148 190.484619,26.550293 C191.082764,25.8178711 191.656494,25.2319336 192.205811,24.7924805 C192.755127,24.3530273 193.286133,24.029541 193.798828,23.8220215 C194.311523,23.614502 194.824219,23.5107422 195.336914,23.5107422 C195.776367,23.5107422 196.179199,23.5534668 196.54541,23.638916 C196.911621,23.7243652 197.247314,23.815918 197.55249,23.9135742 C197.857666,24.0112305 198.132324,24.1027832 198.376465,24.1882324 C198.620605,24.2736816 198.840332,24.3164062 199.035645,24.3164062 C199.279785,24.3164062 199.481201,24.2553711 199.639893,24.1333008 C199.798584,24.0112305 199.926758,23.7915039 200.024414,23.4741211 C200.12207,23.1567383 200.195312,22.7172852 200.244141,22.1557617 C200.292969,21.5942383 200.317383,20.8740234 200.317383,19.9951172 C200.317383,19.1162109 200.305176,18.4204102 200.280762,17.9077148 C200.256348,17.3950195 200.219727,17.010498 200.170898,16.7541504 C200.12207,16.4978027 200.067139,16.2963867 200.006104,16.1499023 C199.945068,16.003418 199.847412,15.8691406 199.713135,15.7470703 C199.578857,15.625 199.365234,15.5090332 199.072266,15.3991699 C198.779297,15.2893066 198.4375,15.1916504 198.046875,15.1062012 C197.65625,15.020752 197.277832,14.9597168 196.911621,14.9230957 C196.54541,14.8864746 196.203613,14.8681641 195.88623,14.8681641 C195.202637,14.8681641 194.519043,14.9597168 193.835449,15.1428223 C193.151855,15.3259277 192.468262,15.6494141 191.784668,16.1132812 C191.101074,16.5771484 190.380859,17.2058105 189.624023,17.9992676 C188.867188,18.7927246 188.061523,19.7998047 187.207031,21.0205078 L187.207031,21.0205078 L187.207031,16.9555664 C187.207031,16.7114258 187.145996,16.4978027 187.023926,16.3146973 C186.901855,16.1315918 186.700439,15.9790039 186.419678,15.8569336 C186.138916,15.7348633 185.742188,15.6433105 185.229492,15.5822754 C184.716797,15.5212402 184.069824,15.4907227 183.288574,15.4907227 C182.531738,15.4907227 181.903076,15.5212402 181.402588,15.5822754 C180.9021,15.6433105 180.493164,15.7348633 180.175781,15.8569336 C179.858398,15.9790039 179.638672,16.1315918 179.516602,16.3146973 C179.394531,16.4978027 179.333496,16.7114258 179.333496,16.9555664 L179.333496,16.9555664 L179.333496,49.621582 C179.333496,49.8657227 179.406738,50.0793457 179.553223,50.2624512 C179.699707,50.4455566 179.949951,50.5981445 180.303955,50.7202148 C180.657959,50.8422852 181.12793,50.9338379 181.713867,50.994873 C182.299805,51.0559082 183.044434,51.0864258 183.947754,51.0864258 Z M232.617188,51.0864258 C233.496094,51.0864258 234.234619,51.0559082 234.832764,50.994873 C235.430908,50.9338379 235.900879,50.8422852 236.242676,50.7202148 C236.584473,50.5981445 236.828613,50.4455566 236.975098,50.2624512 C237.121582,50.0793457 237.194824,49.8657227 237.194824,49.621582 L237.194824,49.621582 L237.194824,29.4433594 C237.194824,27.0751953 236.987305,25.0488281 236.572266,23.3642578 C236.157227,21.6796875 235.479736,20.2087402 234.539795,18.951416 C233.599854,17.6940918 232.366943,16.6992188 230.841064,15.9667969 C229.315186,15.234375 227.441406,14.8681641 225.219727,14.8681641 C223.193359,14.8681641 221.246338,15.3564453 219.378662,16.3330078 C217.510986,17.3095703 215.673828,18.7744141 213.867188,20.7275391 L213.867188,20.7275391 L213.867188,16.9555664 C213.867188,16.7114258 213.806152,16.4978027 213.684082,16.3146973 C213.562012,16.1315918 213.360596,15.9790039 213.079834,15.8569336 C212.799072,15.7348633 212.402344,15.6433105 211.889648,15.5822754 C211.376953,15.5212402 210.72998,15.4907227 209.94873,15.4907227 C209.191895,15.4907227 208.563232,15.5212402 208.062744,15.5822754 C207.562256,15.6433105 207.15332,15.7348633 206.835938,15.8569336 C206.518555,15.9790039 206.298828,16.1315918 206.176758,16.3146973 C206.054688,16.4978027 205.993652,16.7114258 205.993652,16.9555664 L205.993652,16.9555664 L205.993652,49.621582 C205.993652,49.8657227 206.066895,50.0793457 206.213379,50.2624512 C206.359863,50.4455566 206.610107,50.5981445 206.964111,50.7202148 C207.318115,50.8422852 207.788086,50.9338379 208.374023,50.994873 C208.959961,51.0559082 209.70459,51.0864258 210.60791,51.0864258 C211.51123,51.0864258 212.255859,51.0559082 212.841797,50.994873 C213.427734,50.9338379 213.897705,50.8422852 214.251709,50.7202148 C214.605713,50.5981445 214.855957,50.4455566 215.002441,50.2624512 C215.148926,50.0793457 215.222168,49.8657227 215.222168,49.621582 L215.222168,49.621582 L215.222168,27.9052734 C216.516113,26.2695312 217.76123,25.0244141 218.95752,24.1699219 C220.153809,23.3154297 221.337891,22.8881836 222.509766,22.8881836 C223.4375,22.8881836 224.249268,23.0651855 224.945068,23.4191895 C225.640869,23.7731934 226.208496,24.2736816 226.647949,24.9206543 C227.087402,25.567627 227.423096,26.3427734 227.655029,27.2460938 C227.886963,28.1494141 228.00293,29.3945312 228.00293,30.9814453 L228.00293,30.9814453 L228.00293,49.621582 C228.00293,49.8657227 228.076172,50.0793457 228.222656,50.2624512 C228.369141,50.4455566 228.613281,50.5981445 228.955078,50.7202148 C229.296875,50.8422852 229.766846,50.9338379 230.36499,50.994873 C230.963135,51.0559082 231.713867,51.0864258 232.617188,51.0864258 Z" id="modern" fill="#8C8C8C"></path>
                <path d="M255.102539,51.7089844 C257.128906,51.7089844 259.008789,51.4709473 260.742188,50.994873 C262.475586,50.5187988 263.977051,49.8046875 265.246582,48.8525391 C266.516113,47.9003906 267.498779,46.7163086 268.19458,45.300293 C268.890381,43.8842773 269.238281,42.2485352 269.238281,40.3930664 C269.238281,38.9038086 269.006348,37.6159668 268.54248,36.529541 C268.078613,35.4431152 267.468262,34.5092773 266.711426,33.7280273 C265.95459,32.9467773 265.093994,32.2875977 264.129639,31.7504883 C263.165283,31.2133789 262.188721,30.7434082 261.199951,30.3405762 C260.211182,29.9377441 259.234619,29.5654297 258.270264,29.2236328 C257.305908,28.8818359 256.445312,28.515625 255.688477,28.125 C254.931641,27.734375 254.321289,27.2827148 253.857422,26.7700195 C253.393555,26.2573242 253.161621,25.6225586 253.161621,24.8657227 C253.161621,24.3774414 253.259277,23.9196777 253.45459,23.4924316 C253.649902,23.0651855 253.942871,22.6928711 254.333496,22.3754883 C254.724121,22.0581055 255.224609,21.8139648 255.834961,21.6430664 C256.445312,21.472168 257.165527,21.3867188 257.995605,21.3867188 C259.16748,21.3867188 260.211182,21.5148926 261.126709,21.7712402 C262.042236,22.0275879 262.8479,22.3022461 263.543701,22.5952148 C264.239502,22.8881836 264.819336,23.1628418 265.283203,23.4191895 C265.74707,23.6755371 266.088867,23.8037109 266.308594,23.8037109 C266.503906,23.8037109 266.674805,23.7609863 266.821289,23.6755371 C266.967773,23.5900879 267.08374,23.425293 267.169189,23.1811523 C267.254639,22.9370117 267.315674,22.6074219 267.352295,22.1923828 C267.388916,21.7773438 267.407227,21.2402344 267.407227,20.5810547 C267.407227,20.0195312 267.388916,19.5495605 267.352295,19.1711426 C267.315674,18.7927246 267.272949,18.4753418 267.224121,18.2189941 C267.175293,17.9626465 267.102051,17.7429199 267.004395,17.5598145 C266.906738,17.376709 266.741943,17.1936035 266.51001,17.010498 C266.278076,16.8273926 265.893555,16.607666 265.356445,16.3513184 C264.819336,16.0949707 264.160156,15.8569336 263.378906,15.637207 C262.597656,15.4174805 261.724854,15.234375 260.760498,15.0878906 C259.796143,14.9414062 258.80127,14.8681641 257.775879,14.8681641 C255.725098,14.8681641 253.875732,15.1245117 252.227783,15.637207 C250.579834,16.1499023 249.182129,16.8701172 248.034668,17.7978516 C246.887207,18.7255859 246.008301,19.8425293 245.397949,21.1486816 C244.787598,22.454834 244.482422,23.8891602 244.482422,25.4516602 C244.482422,26.9897461 244.708252,28.3081055 245.159912,29.4067383 C245.611572,30.5053711 246.209717,31.4453125 246.954346,32.2265625 C247.698975,33.0078125 248.54126,33.6669922 249.481201,34.2041016 C250.421143,34.7412109 251.385498,35.2172852 252.374268,35.6323242 C253.363037,36.0473633 254.327393,36.4257812 255.267334,36.7675781 C256.207275,37.109375 257.049561,37.4755859 257.794189,37.8662109 C258.538818,38.2568359 259.136963,38.7145996 259.588623,39.239502 C260.040283,39.7644043 260.266113,40.3930664 260.266113,41.1254883 C260.266113,41.7602539 260.144043,42.3217773 259.899902,42.8100586 C259.655762,43.2983398 259.295654,43.7011719 258.81958,44.0185547 C258.343506,44.3359375 257.781982,44.5800781 257.13501,44.7509766 C256.488037,44.921875 255.749512,45.0073242 254.919434,45.0073242 C253.601074,45.0073242 252.423096,44.8486328 251.385498,44.53125 C250.3479,44.2138672 249.438477,43.8720703 248.657227,43.5058594 C247.875977,43.1396484 247.2229,42.8039551 246.697998,42.4987793 C246.173096,42.1936035 245.776367,42.0410156 245.507812,42.0410156 C245.288086,42.0410156 245.10498,42.0837402 244.958496,42.1691895 C244.812012,42.2546387 244.689941,42.4255371 244.592285,42.6818848 C244.494629,42.9382324 244.421387,43.2800293 244.372559,43.7072754 C244.32373,44.1345215 244.299316,44.7021484 244.299316,45.4101562 C244.299316,46.484375 244.372559,47.2961426 244.519043,47.845459 C244.665527,48.3947754 244.873047,48.7976074 245.141602,49.0539551 C245.410156,49.3103027 245.837402,49.5849609 246.42334,49.8779297 C247.009277,50.1708984 247.741699,50.4577637 248.620605,50.7385254 C249.499512,51.0192871 250.494385,51.2512207 251.605225,51.4343262 C252.716064,51.6174316 253.881836,51.7089844 255.102539,51.7089844 Z M280.773926,64.1601562 C281.677246,64.1601562 282.421875,64.1235352 283.007812,64.050293 C283.59375,63.9770508 284.063721,63.873291 284.417725,63.7390137 C284.771729,63.6047363 285.021973,63.4399414 285.168457,63.2446289 C285.314941,63.0493164 285.388184,62.8295898 285.388184,62.5854492 L285.388184,62.5854492 L285.388184,47.2045898 C286.169434,47.9614258 286.92627,48.6206055 287.658691,49.1821289 C288.391113,49.7436523 289.129639,50.213623 289.874268,50.592041 C290.618896,50.970459 291.387939,51.2512207 292.181396,51.4343262 C292.974854,51.6174316 293.847656,51.7089844 294.799805,51.7089844 C297.094727,51.7089844 299.133301,51.2695312 300.915527,50.390625 C302.697754,49.5117188 304.187012,48.2543945 305.383301,46.6186523 C306.57959,44.9829102 307.489014,42.9992676 308.111572,40.6677246 C308.734131,38.3361816 309.04541,35.7177734 309.04541,32.8125 C309.04541,30.3466797 308.80127,28.0273438 308.312988,25.8544922 C307.824707,23.6816406 307.049561,21.7773438 305.987549,20.1416016 C304.925537,18.5058594 303.552246,17.2180176 301.867676,16.2780762 C300.183105,15.3381348 298.144531,14.8681641 295.751953,14.8681641 C294.604492,14.8681641 293.52417,14.9902344 292.510986,15.234375 C291.497803,15.4785156 290.515137,15.8508301 289.562988,16.3513184 C288.61084,16.8518066 287.677002,17.4743652 286.761475,18.2189941 C285.845947,18.963623 284.912109,19.8242188 283.959961,20.8007812 L283.959961,20.8007812 L283.959961,16.9555664 C283.959961,16.7114258 283.898926,16.4978027 283.776855,16.3146973 C283.654785,16.1315918 283.441162,15.9790039 283.135986,15.8569336 C282.830811,15.7348633 282.427979,15.6433105 281.92749,15.5822754 C281.427002,15.5212402 280.810547,15.4907227 280.078125,15.4907227 C279.321289,15.4907227 278.692627,15.5212402 278.192139,15.5822754 C277.69165,15.6433105 277.288818,15.7348633 276.983643,15.8569336 C276.678467,15.9790039 276.464844,16.1315918 276.342773,16.3146973 C276.220703,16.4978027 276.159668,16.7114258 276.159668,16.9555664 L276.159668,16.9555664 L276.159668,62.5854492 C276.159668,62.8295898 276.23291,63.0493164 276.379395,63.2446289 C276.525879,63.4399414 276.776123,63.6047363 277.130127,63.7390137 C277.484131,63.873291 277.954102,63.9770508 278.540039,64.050293 C279.125977,64.1235352 279.870605,64.1601562 280.773926,64.1601562 Z M292.749023,43.8720703 C291.479492,43.8720703 290.258789,43.4265137 289.086914,42.5354004 C287.915039,41.6442871 286.682129,40.3808594 285.388184,38.7451172 L285.388184,38.7451172 L285.388184,27.9785156 C286.120605,27.0019531 286.816406,26.184082 287.475586,25.5249023 C288.134766,24.8657227 288.775635,24.3286133 289.398193,23.9135742 C290.020752,23.4985352 290.631104,23.1994629 291.229248,23.0163574 C291.827393,22.833252 292.431641,22.7416992 293.041992,22.7416992 C294.262695,22.7416992 295.281982,23.0407715 296.099854,23.638916 C296.917725,24.2370605 297.576904,25.0366211 298.077393,26.0375977 C298.577881,27.0385742 298.931885,28.1799316 299.139404,29.4616699 C299.346924,30.7434082 299.450684,32.0800781 299.450684,33.4716797 C299.450684,34.7167969 299.32251,35.9619141 299.066162,37.2070312 C298.809814,38.4521484 298.413086,39.5690918 297.875977,40.5578613 C297.338867,41.5466309 296.64917,42.3461914 295.806885,42.956543 C294.9646,43.5668945 293.945312,43.8720703 292.749023,43.8720703 Z M326.293945,51.7089844 C328.393555,51.7089844 330.303955,51.3061523 332.025146,50.5004883 C333.746338,49.6948242 335.27832,48.5717773 336.621094,47.1313477 L336.621094,47.1313477 L336.621094,49.7314453 C336.621094,50.0732422 336.724854,50.3417969 336.932373,50.5371094 C337.139893,50.7324219 337.493896,50.8728027 337.994385,50.958252 C338.494873,51.0437012 339.294434,51.0864258 340.393066,51.0864258 C341.418457,51.0864258 342.193604,51.0437012 342.718506,50.958252 C343.243408,50.8728027 343.62793,50.7324219 343.87207,50.5371094 C344.116211,50.3417969 344.238281,50.0732422 344.238281,49.7314453 L344.238281,49.7314453 L344.238281,27.7587891 C344.238281,25.5126953 343.969727,23.5717773 343.432617,21.9360352 C342.895508,20.300293 342.041016,18.963623 340.869141,17.9260254 C339.697266,16.8884277 338.201904,16.1193848 336.383057,15.6188965 C334.564209,15.1184082 332.373047,14.8681641 329.80957,14.8681641 C328.369141,14.8681641 326.971436,14.9841309 325.616455,15.2160645 C324.261475,15.447998 323.010254,15.7470703 321.862793,16.1132812 C320.715332,16.4794922 319.714355,16.8762207 318.859863,17.3034668 C318.005371,17.7307129 317.407227,18.1213379 317.06543,18.4753418 C316.723633,18.8293457 316.491699,19.2260742 316.369629,19.6655273 C316.247559,20.1049805 316.186523,20.703125 316.186523,21.4599609 C316.186523,22.0214844 316.223145,22.5341797 316.296387,22.9980469 C316.369629,23.4619141 316.473389,23.8525391 316.607666,24.1699219 C316.741943,24.4873047 316.912842,24.7314453 317.120361,24.9023438 C317.327881,25.0732422 317.565918,25.1586914 317.834473,25.1586914 C318.225098,25.1586914 318.731689,24.987793 319.354248,24.6459961 C319.976807,24.3041992 320.751953,23.9257812 321.679688,23.5107422 C322.607422,23.0957031 323.675537,22.7172852 324.884033,22.3754883 C326.092529,22.0336914 327.46582,21.862793 329.003906,21.862793 C330.175781,21.862793 331.158447,21.9848633 331.951904,22.2290039 C332.745361,22.4731445 333.380127,22.8515625 333.856201,23.3642578 C334.332275,23.8769531 334.674072,24.5178223 334.881592,25.2868652 C335.089111,26.0559082 335.192871,26.953125 335.192871,27.9785156 L335.192871,27.9785156 L335.192871,29.9560547 L332.006836,29.9560547 C329.101562,29.9560547 326.550293,30.1757812 324.353027,30.6152344 C322.155762,31.0546875 320.318604,31.7321777 318.841553,32.6477051 C317.364502,33.5632324 316.253662,34.7229004 315.509033,36.126709 C314.764404,37.5305176 314.39209,39.1845703 314.39209,41.0888672 C314.39209,42.8466797 314.685059,44.3847656 315.270996,45.703125 C315.856934,47.0214844 316.680908,48.1262207 317.74292,49.017334 C318.804932,49.9084473 320.062256,50.579834 321.514893,51.0314941 C322.967529,51.4831543 324.560547,51.7089844 326.293945,51.7089844 Z M328.308105,45.1904297 C326.77002,45.1904297 325.567627,44.7998047 324.700928,44.0185547 C323.834229,43.2373047 323.400879,42.1630859 323.400879,40.7958984 C323.400879,39.9902344 323.553467,39.276123 323.858643,38.6535645 C324.163818,38.0310059 324.645996,37.5 325.305176,37.0605469 C325.964355,36.6210938 326.818848,36.2915039 327.868652,36.0717773 C328.918457,35.8520508 330.187988,35.7421875 331.677246,35.7421875 L331.677246,35.7421875 L335.192871,35.7421875 L335.192871,41.3085938 C334.069824,42.578125 332.965088,43.5424805 331.878662,44.2016602 C330.792236,44.8608398 329.602051,45.1904297 328.308105,45.1904297 Z M367.016602,51.6723633 C368.139648,51.6723633 369.232178,51.574707 370.294189,51.3793945 C371.356201,51.184082 372.338867,50.9277344 373.242188,50.6103516 C374.145508,50.2929688 374.951172,49.9328613 375.65918,49.5300293 C376.367188,49.1271973 376.867676,48.7854004 377.160645,48.5046387 C377.453613,48.223877 377.642822,47.9919434 377.728271,47.8088379 C377.813721,47.6257324 377.886963,47.3876953 377.947998,47.0947266 C378.009033,46.8017578 378.057861,46.4416504 378.094482,46.0144043 C378.131104,45.5871582 378.149414,45.0561523 378.149414,44.4213867 C378.149414,43.6157227 378.125,42.956543 378.076172,42.4438477 C378.027344,41.9311523 377.960205,41.5100098 377.874756,41.1804199 C377.789307,40.8508301 377.67334,40.625 377.526855,40.5029297 C377.380371,40.3808594 377.197266,40.3198242 376.977539,40.3198242 C376.660156,40.3198242 376.269531,40.5090332 375.805664,40.8874512 C375.341797,41.2658691 374.768066,41.6870117 374.084473,42.1508789 C373.400879,42.6147461 372.601318,43.0358887 371.685791,43.4143066 C370.770264,43.7927246 369.677734,43.9819336 368.408203,43.9819336 C367.163086,43.9819336 366.070557,43.7561035 365.130615,43.3044434 C364.190674,42.8527832 363.409424,42.175293 362.786865,41.2719727 C362.164307,40.3686523 361.694336,39.2456055 361.376953,37.902832 C361.05957,36.5600586 360.900879,35.0097656 360.900879,33.2519531 C360.900879,29.6875 361.535645,26.9836426 362.805176,25.1403809 C364.074707,23.2971191 365.905762,22.3754883 368.29834,22.3754883 C369.519043,22.3754883 370.568848,22.5463867 371.447754,22.8881836 C372.32666,23.2299805 373.083496,23.6083984 373.718262,24.0234375 C374.353027,24.4384766 374.902344,24.8168945 375.366211,25.1586914 C375.830078,25.5004883 376.269531,25.6713867 376.68457,25.6713867 C377.075195,25.6713867 377.392578,25.3845215 377.636719,24.810791 C377.880859,24.2370605 378.00293,23.2421875 378.00293,21.8261719 C378.00293,21.2158203 377.984619,20.6970215 377.947998,20.2697754 C377.911377,19.8425293 377.862549,19.4824219 377.801514,19.1894531 C377.740479,18.8964844 377.655029,18.6584473 377.545166,18.4753418 C377.435303,18.2922363 377.246094,18.0664062 376.977539,17.7978516 C376.708984,17.5292969 376.251221,17.2119141 375.604248,16.8457031 C374.957275,16.4794922 374.224854,16.1499023 373.406982,15.8569336 C372.589111,15.5639648 371.710205,15.3320312 370.770264,15.1611328 C369.830322,14.9902344 368.87207,14.9047852 367.895508,14.9047852 C365.50293,14.9047852 363.305664,15.2832031 361.303711,16.0400391 C359.301758,16.796875 357.568359,17.956543 356.103516,19.519043 C354.638672,21.081543 353.497314,23.0529785 352.679443,25.4333496 C351.861572,27.8137207 351.452637,30.6396484 351.452637,33.9111328 C351.452637,36.7431641 351.78833,39.2578125 352.459717,41.4550781 C353.131104,43.6523438 354.125977,45.513916 355.444336,47.0397949 C356.762695,48.5656738 358.392334,49.7192383 360.333252,50.5004883 C362.27417,51.2817383 364.501953,51.6723633 367.016602,51.6723633 Z M400.378418,51.7089844 C401.989746,51.7089844 403.503418,51.6052246 404.919434,51.3977051 C406.335449,51.1901855 407.592773,50.9460449 408.691406,50.6652832 C409.790039,50.3845215 410.693359,50.0976562 411.401367,49.8046875 C412.109375,49.5117188 412.542725,49.2797852 412.701416,49.1088867 C412.860107,48.9379883 412.988281,48.7609863 413.085938,48.5778809 C413.183594,48.3947754 413.256836,48.1689453 413.305664,47.9003906 C413.354492,47.6318359 413.391113,47.3083496 413.415527,46.9299316 C413.439941,46.5515137 413.452148,46.09375 413.452148,45.5566406 C413.452148,44.9462891 413.433838,44.4396973 413.397217,44.0368652 C413.360596,43.6340332 413.293457,43.3227539 413.195801,43.1030273 C413.098145,42.8833008 412.976074,42.7307129 412.82959,42.6452637 C412.683105,42.5598145 412.5,42.5170898 412.280273,42.5170898 C411.914062,42.5170898 411.437988,42.6330566 410.852051,42.8649902 C410.266113,43.0969238 409.527588,43.3532715 408.636475,43.6340332 C407.745361,43.9147949 406.689453,44.1711426 405.46875,44.4030762 C404.248047,44.6350098 402.832031,44.7509766 401.220703,44.7509766 C399.633789,44.7509766 398.272705,44.543457 397.137451,44.128418 C396.002197,43.7133789 395.074463,43.1091309 394.354248,42.3156738 C393.634033,41.5222168 393.109131,40.5578613 392.779541,39.4226074 C392.449951,38.2873535 392.285156,37.0239258 392.285156,35.6323242 L392.285156,35.6323242 L412.17041,35.6323242 C413.049316,35.6323242 413.739014,35.3637695 414.239502,34.8266602 C414.73999,34.2895508 414.990234,33.4594727 414.990234,32.3364258 L414.990234,32.3364258 L414.990234,30.871582 C414.990234,28.5766602 414.697266,26.4526367 414.111328,24.4995117 C413.525391,22.5463867 412.609863,20.8557129 411.364746,19.4274902 C410.119629,17.9992676 408.526611,16.8823242 406.585693,16.0766602 C404.644775,15.2709961 402.307129,14.8681641 399.572754,14.8681641 C396.984863,14.8681641 394.659424,15.2954102 392.596436,16.1499023 C390.533447,17.0043945 388.781738,18.2434082 387.341309,19.8669434 C385.900879,21.4904785 384.802246,23.4680176 384.04541,25.7995605 C383.288574,28.1311035 382.910156,30.7495117 382.910156,33.6547852 C382.910156,36.706543 383.270264,39.3676758 383.990479,41.6381836 C384.710693,43.9086914 385.803223,45.7885742 387.268066,47.277832 C388.73291,48.7670898 390.557861,49.8779297 392.74292,50.6103516 C394.927979,51.3427734 397.473145,51.7089844 400.378418,51.7089844 Z M406.054688,29.699707 L392.285156,29.699707 C392.333984,28.5522461 392.510986,27.4719238 392.816162,26.4587402 C393.121338,25.4455566 393.560791,24.5666504 394.134521,23.8220215 C394.708252,23.0773926 395.428467,22.4853516 396.295166,22.0458984 C397.161865,21.6064453 398.181152,21.3867188 399.353027,21.3867188 C401.672363,21.3867188 403.387451,22.1252441 404.498291,23.6022949 C405.609131,25.0793457 406.12793,27.1118164 406.054688,29.699707 L406.054688,29.699707 Z" id="space" fill="#EE3B3B"></path>
            </g>
            <path d="M8.390625,97.5334473 C9.65852865,97.5334473 10.8839111,97.2242025 12.0667725,96.6057129 C13.2496338,95.9872233 14.4131673,95.0594889 15.557373,93.8225098 L15.557373,93.8225098 L15.557373,96.2114258 C15.557373,96.3660482 15.5960286,96.5013428 15.6733398,96.6173096 C15.750651,96.7332764 15.8820801,96.8299154 16.067627,96.9072266 C16.2531738,96.9845378 16.5044352,97.0425212 16.8214111,97.0811768 C17.138387,97.1198324 17.552002,97.1391602 18.0622559,97.1391602 C18.5415853,97.1391602 18.939738,97.1198324 19.2567139,97.0811768 C19.5736898,97.0425212 19.8288167,96.9845378 20.0220947,96.9072266 C20.2153727,96.8299154 20.3506673,96.7332764 20.4279785,96.6173096 C20.5052897,96.5013428 20.5439453,96.3660482 20.5439453,96.2114258 L20.5439453,96.2114258 L20.5439453,75.5229492 C20.5439453,75.3683268 20.4975586,75.2330322 20.4047852,75.1170654 C20.3120117,75.0010986 20.1573893,74.9044596 19.940918,74.8271484 C19.7244466,74.7498372 19.4306641,74.6918538 19.0595703,74.6531982 C18.6884766,74.6145426 18.2168783,74.5952148 17.6447754,74.5952148 C17.0726725,74.5952148 16.6010742,74.6145426 16.2299805,74.6531982 C15.8588867,74.6918538 15.5612386,74.7498372 15.3370361,74.8271484 C15.1128337,74.9044596 14.9582113,75.0010986 14.8731689,75.1170654 C14.7881266,75.2330322 14.7456055,75.3683268 14.7456055,75.5229492 L14.7456055,75.5229492 L14.7456055,89.2766113 C13.8951823,90.3125814 13.0950114,91.1011556 12.3450928,91.642334 C11.5951742,92.1835124 10.8491211,92.4541016 10.1069336,92.4541016 C9.51936849,92.4541016 9.00524902,92.3420003 8.5645752,92.1177979 C8.12390137,91.8935954 7.76053874,91.5766195 7.4744873,91.1668701 C7.18843587,90.7571208 6.97583008,90.2661947 6.83666992,89.6940918 C6.69750977,89.1219889 6.62792969,88.2947591 6.62792969,87.2124023 L6.62792969,87.2124023 L6.62792969,75.5229492 C6.62792969,75.3683268 6.58154297,75.2330322 6.48876953,75.1170654 C6.39599609,75.0010986 6.23750814,74.9044596 6.01330566,74.8271484 C5.78910319,74.7498372 5.49145508,74.6918538 5.12036133,74.6531982 C4.74926758,74.6145426 4.27766927,74.5952148 3.70556641,74.5952148 C3.14892578,74.5952148 2.68119303,74.6145426 2.30236816,74.6531982 C1.92354329,74.6918538 1.62202962,74.7498372 1.39782715,74.8271484 C1.17362467,74.9044596 1.01900228,75.0010986 0.933959961,75.1170654 C0.848917643,75.2330322 0.806396484,75.3683268 0.806396484,75.5229492 L0.806396484,75.5229492 L0.806396484,88.1865234 C0.806396484,89.7636719 0.933959961,91.0818278 1.18908691,92.1409912 C1.44421387,93.2001546 1.86942546,94.1317546 2.46472168,94.935791 C3.0600179,95.7398275 3.840861,96.3737793 4.80725098,96.8376465 C5.77364095,97.3015137 6.96809896,97.5334473 8.390625,97.5334473 Z M44.339764,97.1391602 C44.8964047,97.1391602 45.3641374,97.1198324 45.7429623,97.0811768 C46.1217871,97.0425212 46.4194353,96.9845378 46.6359066,96.9072266 C46.852378,96.8299154 47.0070004,96.7332764 47.0997738,96.6173096 C47.1925472,96.5013428 47.238934,96.3660482 47.238934,96.2114258 L47.238934,96.2114258 L47.238934,83.4318848 C47.238934,81.9320475 47.1075049,80.6486816 46.8446468,79.5817871 C46.5817888,78.5148926 46.1527116,77.5832926 45.5574154,76.7869873 C44.9621192,75.990682 44.1812761,75.3605957 43.2148861,74.8967285 C42.2484961,74.4328613 41.0617692,74.2009277 39.6547054,74.2009277 C38.3713396,74.2009277 37.1382259,74.5101725 35.9553646,75.1286621 C34.7725033,75.7471517 33.6089698,76.6748861 32.464764,77.9118652 L32.464764,77.9118652 L32.464764,75.5229492 C32.464764,75.3683268 32.4261084,75.2330322 32.3487972,75.1170654 C32.271486,75.0010986 32.1439226,74.9044596 31.9661068,74.8271484 C31.788291,74.7498372 31.5370297,74.6918538 31.2123226,74.6531982 C30.8876156,74.6145426 30.4778662,74.5952148 29.9830746,74.5952148 C29.5037452,74.5952148 29.1055925,74.6145426 28.7886166,74.6531982 C28.4716407,74.6918538 28.2126481,74.7498372 28.011639,74.8271484 C27.8106299,74.9044596 27.6714698,75.0010986 27.5941586,75.1170654 C27.5168474,75.2330322 27.4781918,75.3683268 27.4781918,75.5229492 L27.4781918,75.5229492 L27.4781918,96.2114258 C27.4781918,96.3660482 27.5245785,96.5013428 27.6173519,96.6173096 C27.7101254,96.7332764 27.8686133,96.8299154 28.0928158,96.9072266 C28.3170183,96.9845378 28.6146664,97.0425212 28.9857601,97.0811768 C29.3568539,97.1198324 29.8284522,97.1391602 30.400555,97.1391602 C30.9726579,97.1391602 31.4442562,97.1198324 31.81535,97.0811768 C32.1864437,97.0425212 32.4840918,96.9845378 32.7082943,96.9072266 C32.9324968,96.8299154 33.0909847,96.7332764 33.1837582,96.6173096 C33.2765316,96.5013428 33.3229183,96.3660482 33.3229183,96.2114258 L33.3229183,96.2114258 L33.3229183,82.4577637 C34.142417,81.4217936 34.9309912,80.6332194 35.688641,80.092041 C36.4462907,79.5508626 37.1962093,79.2802734 37.9383968,79.2802734 C38.5259619,79.2802734 39.0400814,79.3923747 39.4807552,79.6165771 C39.9214291,79.8407796 40.2809261,80.1577555 40.5592465,80.5675049 C40.8375668,80.9772542 41.0501726,81.4681803 41.1970638,82.0402832 C41.3439551,82.6123861 41.4174007,83.4009603 41.4174007,84.4060059 L41.4174007,84.4060059 L41.4174007,96.2114258 C41.4174007,96.3660482 41.4637875,96.5013428 41.5565609,96.6173096 C41.6493343,96.7332764 41.8039567,96.8299154 42.0204281,96.9072266 C42.2368994,96.9845378 42.5345476,97.0425212 42.9133724,97.0811768 C43.2921973,97.1198324 43.7676612,97.1391602 44.339764,97.1391602 Z M65.955407,97.5334473 C67.3624708,97.5334473 68.6187777,97.255127 69.7243279,96.6984863 C70.829878,96.1418457 71.7614779,95.3455404 72.5191277,94.3095703 C73.2767774,93.2736003 73.8566114,92.0211589 74.2586296,90.5522461 C74.6606479,89.0833333 74.861657,87.4288737 74.861657,85.5888672 C74.861657,84.0581055 74.7070346,82.6007894 74.3977898,81.2169189 C74.088545,79.8330485 73.5976189,78.6231283 72.9250115,77.5871582 C72.252404,76.5511882 71.3826531,75.7278239 70.3157585,75.1170654 C69.248864,74.506307 67.9500359,74.2009277 66.4192742,74.2009277 C65.8007846,74.2009277 65.2132195,74.2550456 64.6565788,74.3632812 C64.0999382,74.4715169 63.5587598,74.6454671 63.0330437,74.8851318 C62.5073275,75.1247965 61.9816114,75.4301758 61.4558952,75.8012695 C60.9301791,76.1723633 60.404463,76.6207682 59.8787468,77.1464844 L59.8787468,77.1464844 L59.8787468,65.7121582 C59.8787468,65.5575358 59.8323601,65.4183757 59.7395867,65.2946777 C59.6468132,65.1709798 59.4883253,65.0666097 59.2641228,64.9815674 C59.0399203,64.8965251 58.7422722,64.8308105 58.3711785,64.7844238 C58.0000847,64.7380371 57.5284864,64.7148438 56.9563835,64.7148438 C56.3842807,64.7148438 55.9126824,64.7380371 55.5415886,64.7844238 C55.1704949,64.8308105 54.8728467,64.8965251 54.6486443,64.9815674 C54.4244418,65.0666097 54.2659538,65.1709798 54.1731804,65.2946777 C54.080407,65.4183757 54.0340202,65.5575358 54.0340202,65.7121582 L54.0340202,65.7121582 L54.0340202,96.2114258 C54.0340202,96.3815104 54.0726758,96.5245361 54.149987,96.6405029 C54.2272982,96.7564697 54.3625928,96.8531087 54.5558708,96.9304199 C54.7491488,97.0077311 55.0042758,97.061849 55.3212517,97.0927734 C55.6382276,97.1236979 56.0363803,97.1391602 56.5157097,97.1391602 C56.9795769,97.1391602 57.373864,97.1236979 57.698571,97.0927734 C58.0232781,97.061849 58.2822706,97.0077311 58.4755486,96.9304199 C58.6688266,96.8531087 58.8079867,96.7564697 58.893029,96.6405029 C58.9780714,96.5245361 59.0205925,96.3815104 59.0205925,96.2114258 L59.0205925,96.2114258 L59.0205925,93.9616699 C59.5772331,94.5956217 60.1222771,95.1368001 60.6557244,95.5852051 C61.1891716,96.03361 61.73035,96.4047038 62.2792595,96.6984863 C62.828169,96.9922689 63.4041374,97.2048747 64.0071648,97.3363037 C64.6101921,97.4677327 65.2596062,97.5334473 65.955407,97.5334473 Z M64.5869988,92.5700684 C63.7675001,92.5700684 62.9827914,92.2956136 62.2328728,91.7467041 C61.4829542,91.1977946 60.6982455,90.3976237 59.8787468,89.3461914 L59.8787468,89.3461914 L59.8787468,82.480957 C60.342614,81.8624674 60.7832878,81.3444824 61.2007683,80.927002 C61.6182488,80.5095215 62.0241326,80.1693522 62.4184197,79.9064941 C62.8127068,79.6436361 63.1953972,79.4580892 63.566491,79.3498535 C63.9375847,79.2416178 64.3164096,79.1875 64.7029656,79.1875 C65.4915398,79.1875 66.1448194,79.3769124 66.6628044,79.7557373 C67.1807895,80.1345622 67.6021355,80.6409505 67.9268425,81.2749023 C68.2515495,81.9088542 68.4796176,82.6355794 68.6110466,83.4550781 C68.7424757,84.2745768 68.8081902,85.125 68.8081902,86.0063477 C68.8081902,86.7949219 68.730879,87.5834961 68.5762566,88.3720703 C68.4216342,89.1606445 68.1703728,89.8641764 67.8224724,90.482666 C67.474572,91.1011556 67.0377637,91.6036784 66.5120476,91.9902344 C65.9863314,92.3767904 65.3446485,92.5700684 64.5869988,92.5700684 Z M90.1687062,97.5334473 C92.0705616,97.5334473 93.7327524,97.2473958 95.1552784,96.675293 C96.5778045,96.1031901 97.7606658,95.2914225 98.7038624,94.2399902 C99.647059,93.1885579 100.350591,91.9361165 100.814458,90.482666 C101.278325,89.0292155 101.510259,87.4211426 101.510259,85.6584473 C101.510259,83.8184408 101.293788,82.1871745 100.860845,80.7646484 C100.427902,79.3421224 99.7668914,78.1437988 98.8778126,77.1696777 C97.9887338,76.1955566 96.8638559,75.4572347 95.5031788,74.9547119 C94.1425017,74.4521891 92.5344288,74.2009277 90.6789601,74.2009277 C88.7771046,74.2009277 87.1187794,74.4869792 85.7039845,75.059082 C84.2891896,75.6311849 83.1101938,76.4390869 82.1669972,77.4827881 C81.2238006,78.5264893 80.5164031,79.7789307 80.0448048,81.2401123 C79.5732065,82.7012939 79.3374073,84.3132324 79.3374073,86.0759277 C79.3374073,87.900472 79.5538787,89.5240072 79.9868214,90.9465332 C80.4197641,92.3690592 81.0846404,93.5673828 81.9814503,94.5415039 C82.8782602,95.515625 84.0070037,96.2578125 85.3676808,96.7680664 C86.7283578,97.2783203 88.3286996,97.5334473 90.1687062,97.5334473 Z M90.3774464,92.871582 C89.4187875,92.871582 88.6147511,92.6976318 87.965337,92.3497314 C87.315923,92.0018311 86.8018035,91.5109049 86.4229786,90.8769531 C86.0441537,90.2430013 85.769699,89.4969482 85.5996144,88.6387939 C85.4295297,87.7806396 85.3444874,86.8413086 85.3444874,85.8208008 C85.3444874,84.7229818 85.4488575,83.7449951 85.6575978,82.8868408 C85.866338,82.0286865 86.1794483,81.2942301 86.5969288,80.6834717 C87.0144093,80.0727132 87.5478565,79.608846 88.1972706,79.2918701 C88.8466847,78.9748942 89.6043344,78.8164062 90.4702198,78.8164062 C91.4443409,78.8164062 92.2522429,78.994222 92.8939259,79.3498535 C93.5356088,79.705485 94.0497283,80.2002767 94.4362843,80.8342285 C94.8228403,81.4681803 95.097295,82.2142334 95.2596485,83.0723877 C95.4220021,83.930542 95.5031788,84.869873 95.5031788,85.8903809 C95.5031788,86.9881999 95.4026743,87.9661865 95.2016651,88.8243408 C95.000656,89.6824951 94.6914112,90.4130859 94.2739308,91.0161133 C93.8564503,91.6191406 93.323003,92.0791423 92.673589,92.3961182 C92.0241749,92.7130941 91.258794,92.871582 90.3774464,92.871582 Z M114.660326,97.5334473 C115.928229,97.5334473 117.153612,97.2242025 118.336473,96.6057129 C119.519334,95.9872233 120.682868,95.0594889 121.827074,93.8225098 L121.827074,93.8225098 L121.827074,96.2114258 C121.827074,96.3660482 121.865729,96.5013428 121.94304,96.6173096 C122.020352,96.7332764 122.151781,96.8299154 122.337328,96.9072266 C122.522874,96.9845378 122.774136,97.0425212 123.091112,97.0811768 C123.408088,97.1198324 123.821703,97.1391602 124.331957,97.1391602 C124.811286,97.1391602 125.209439,97.1198324 125.526415,97.0811768 C125.84339,97.0425212 126.098517,96.9845378 126.291795,96.9072266 C126.485073,96.8299154 126.620368,96.7332764 126.697679,96.6173096 C126.77499,96.5013428 126.813646,96.3660482 126.813646,96.2114258 L126.813646,96.2114258 L126.813646,75.5229492 C126.813646,75.3683268 126.767259,75.2330322 126.674486,75.1170654 C126.581712,75.0010986 126.42709,74.9044596 126.210619,74.8271484 C125.994147,74.7498372 125.700365,74.6918538 125.329271,74.6531982 C124.958177,74.6145426 124.486579,74.5952148 123.914476,74.5952148 C123.342373,74.5952148 122.870775,74.6145426 122.499681,74.6531982 C122.128587,74.6918538 121.830939,74.7498372 121.606737,74.8271484 C121.382534,74.9044596 121.227912,75.0010986 121.14287,75.1170654 C121.057827,75.2330322 121.015306,75.3683268 121.015306,75.5229492 L121.015306,75.5229492 L121.015306,89.2766113 C120.164883,90.3125814 119.364712,91.1011556 118.614793,91.642334 C117.864875,92.1835124 117.118822,92.4541016 116.376634,92.4541016 C115.789069,92.4541016 115.27495,92.3420003 114.834276,92.1177979 C114.393602,91.8935954 114.030239,91.5766195 113.744188,91.1668701 C113.458137,90.7571208 113.245531,90.2661947 113.106371,89.6940918 C112.96721,89.1219889 112.89763,88.2947591 112.89763,87.2124023 L112.89763,87.2124023 L112.89763,75.5229492 C112.89763,75.3683268 112.851244,75.2330322 112.75847,75.1170654 C112.665697,75.0010986 112.507209,74.9044596 112.283006,74.8271484 C112.058804,74.7498372 111.761156,74.6918538 111.390062,74.6531982 C111.018968,74.6145426 110.54737,74.5952148 109.975267,74.5952148 C109.418626,74.5952148 108.950894,74.6145426 108.572069,74.6531982 C108.193244,74.6918538 107.89173,74.7498372 107.667528,74.8271484 C107.443325,74.9044596 107.288703,75.0010986 107.203661,75.1170654 C107.118618,75.2330322 107.076097,75.3683268 107.076097,75.5229492 L107.076097,75.5229492 L107.076097,88.1865234 C107.076097,89.7636719 107.203661,91.0818278 107.458788,92.1409912 C107.713915,93.2001546 108.139126,94.1317546 108.734422,94.935791 C109.329719,95.7398275 110.110562,96.3737793 111.076952,96.8376465 C112.043342,97.3015137 113.2378,97.5334473 114.660326,97.5334473 Z M150.609465,97.1391602 C151.166105,97.1391602 151.633838,97.1198324 152.012663,97.0811768 C152.391488,97.0425212 152.689136,96.9845378 152.905607,96.9072266 C153.122079,96.8299154 153.276701,96.7332764 153.369474,96.6173096 C153.462248,96.5013428 153.508635,96.3660482 153.508635,96.2114258 L153.508635,96.2114258 L153.508635,83.4318848 C153.508635,81.9320475 153.377206,80.6486816 153.114347,79.5817871 C152.851489,78.5148926 152.422412,77.5832926 151.827116,76.7869873 C151.23182,75.990682 150.450977,75.3605957 149.484587,74.8967285 C148.518197,74.4328613 147.33147,74.2009277 145.924406,74.2009277 C144.64104,74.2009277 143.407927,74.5101725 142.225065,75.1286621 C141.042204,75.7471517 139.87867,76.6748861 138.734465,77.9118652 L138.734465,77.9118652 L138.734465,75.5229492 C138.734465,75.3683268 138.695809,75.2330322 138.618498,75.1170654 C138.541187,75.0010986 138.413623,74.9044596 138.235807,74.8271484 C138.057992,74.7498372 137.80673,74.6918538 137.482023,74.6531982 C137.157316,74.6145426 136.747567,74.5952148 136.252775,74.5952148 C135.773446,74.5952148 135.375293,74.6145426 135.058317,74.6531982 C134.741341,74.6918538 134.482349,74.7498372 134.28134,74.8271484 C134.080331,74.9044596 133.94117,75.0010986 133.863859,75.1170654 C133.786548,75.2330322 133.747892,75.3683268 133.747892,75.5229492 L133.747892,75.5229492 L133.747892,96.2114258 C133.747892,96.3660482 133.794279,96.5013428 133.887053,96.6173096 C133.979826,96.7332764 134.138314,96.8299154 134.362516,96.9072266 C134.586719,96.9845378 134.884367,97.0425212 135.255461,97.0811768 C135.626555,97.1198324 136.098153,97.1391602 136.670256,97.1391602 C137.242359,97.1391602 137.713957,97.1198324 138.085051,97.0811768 C138.456144,97.0425212 138.753792,96.9845378 138.977995,96.9072266 C139.202197,96.8299154 139.360685,96.7332764 139.453459,96.6173096 C139.546232,96.5013428 139.592619,96.3660482 139.592619,96.2114258 L139.592619,96.2114258 L139.592619,82.4577637 C140.412118,81.4217936 141.200692,80.6332194 141.958342,80.092041 C142.715991,79.5508626 143.46591,79.2802734 144.208097,79.2802734 C144.795663,79.2802734 145.309782,79.3923747 145.750456,79.6165771 C146.19113,79.8407796 146.550627,80.1577555 146.828947,80.5675049 C147.107267,80.9772542 147.319873,81.4681803 147.466764,82.0402832 C147.613656,82.6123861 147.687101,83.4009603 147.687101,84.4060059 L147.687101,84.4060059 L147.687101,96.2114258 C147.687101,96.3660482 147.733488,96.5013428 147.826262,96.6173096 C147.919035,96.7332764 148.073657,96.8299154 148.290129,96.9072266 C148.5066,96.9845378 148.804248,97.0425212 149.183073,97.0811768 C149.561898,97.1198324 150.037362,97.1391602 150.609465,97.1391602 Z M167.748789,97.5334473 C169.171315,97.5334473 170.466278,97.2164714 171.633677,96.5825195 C172.801076,95.9485677 173.918223,95.0594889 174.985117,93.9152832 L174.985117,93.9152832 L174.985117,96.2114258 C174.985117,96.3815104 175.027639,96.5245361 175.112681,96.6405029 C175.197723,96.7564697 175.336883,96.8531087 175.530161,96.9304199 C175.723439,97.0077311 175.974701,97.061849 176.283946,97.0927734 C176.59319,97.1236979 176.995209,97.1391602 177.49,97.1391602 C177.953867,97.1391602 178.344289,97.1236979 178.661265,97.0927734 C178.978241,97.061849 179.229502,97.0077311 179.415049,96.9304199 C179.600596,96.8531087 179.732025,96.7564697 179.809336,96.6405029 C179.886647,96.5245361 179.925303,96.3815104 179.925303,96.2114258 L179.925303,96.2114258 L179.925303,65.7817383 C179.925303,65.6271159 179.878916,65.4879557 179.786143,65.3642578 C179.693369,65.2405599 179.538747,65.1361898 179.322276,65.0511475 C179.105804,64.9661051 178.812022,64.9003906 178.440928,64.8540039 C178.069834,64.8076172 177.598236,64.7844238 177.026133,64.7844238 C176.45403,64.7844238 175.982432,64.8076172 175.611338,64.8540039 C175.240244,64.9003906 174.942596,64.9661051 174.718394,65.0511475 C174.494191,65.1361898 174.339569,65.2405599 174.254527,65.3642578 C174.169484,65.4879557 174.126963,65.6271159 174.126963,65.7817383 L174.126963,65.7817383 L174.126963,76.9841309 C173.199229,76.0718587 172.263763,75.3799235 171.320567,74.9083252 C170.37737,74.4367269 169.325938,74.2009277 168.16627,74.2009277 C166.697357,74.2009277 165.398529,74.479248 164.269785,75.0358887 C163.141042,75.5925293 162.197845,76.3888346 161.440196,77.4248047 C160.682546,78.4607747 160.106577,79.7132161 159.71229,81.1821289 C159.318003,82.6510417 159.12086,84.3055013 159.12086,86.1455078 C159.12086,87.6762695 159.275482,89.1335856 159.584727,90.5174561 C159.893972,91.9013265 160.392629,93.1112467 161.080698,94.1472168 C161.768768,95.1831868 162.657847,96.0065511 163.747935,96.6173096 C164.838023,97.228068 166.171641,97.5334473 167.748789,97.5334473 Z M169.209971,92.5932617 C168.405934,92.5932617 167.741058,92.3999837 167.215342,92.0134277 C166.689626,91.6268717 166.26828,91.1127523 165.951304,90.4710693 C165.634328,89.8293864 165.40626,89.0987956 165.2671,88.2792969 C165.12794,87.4597982 165.05836,86.6171061 165.05836,85.7512207 C165.05836,84.931722 165.139536,84.1315511 165.30189,83.350708 C165.464243,82.5698649 165.711639,81.8624674 166.044077,81.2285156 C166.376515,80.5945638 166.817189,80.0881755 167.366099,79.7093506 C167.915008,79.3305257 168.568288,79.1411133 169.325938,79.1411133 C170.160899,79.1411133 170.96107,79.4194336 171.72645,79.9760742 C172.491831,80.5327148 173.292002,81.3367513 174.126963,82.3881836 L174.126963,82.3881836 L174.126963,89.253418 C173.632171,89.8719076 173.176035,90.3937581 172.758555,90.8189697 C172.341074,91.2441813 171.935191,91.5882161 171.540904,91.8510742 C171.146616,92.1139323 170.76006,92.3033447 170.381236,92.4193115 C170.002411,92.5352783 169.611989,92.5932617 169.209971,92.5932617 Z M196.716727,97.5334473 C197.737235,97.5334473 198.695894,97.4677327 199.592704,97.3363037 C200.489514,97.2048747 201.285819,97.0502523 201.98162,96.8724365 C202.67742,96.6946208 203.249523,96.5129395 203.697928,96.3273926 C204.146333,96.1418457 204.420788,95.9949544 204.521293,95.8867188 C204.621797,95.7784831 204.702974,95.6663818 204.764823,95.550415 C204.826672,95.4344482 204.873059,95.2914225 204.903983,95.1213379 C204.934907,94.9512533 204.958101,94.7463786 204.973563,94.5067139 C204.989025,94.2670492 204.996756,93.9771322 204.996756,93.6369629 C204.996756,93.2504069 204.98516,92.9295654 204.961966,92.6744385 C204.938773,92.4193115 204.896252,92.222168 204.834403,92.0830078 C204.772554,91.9438477 204.695243,91.8472087 204.602469,91.7930908 C204.509696,91.738973 204.393729,91.7119141 204.254569,91.7119141 C204.022635,91.7119141 203.721122,91.7853597 203.350028,91.932251 C202.978934,92.0791423 202.511201,92.2414958 201.94683,92.4193115 C201.382458,92.5971273 200.713716,92.7594808 199.940604,92.9063721 C199.167492,93.0532633 198.270682,93.126709 197.250174,93.126709 C196.245129,93.126709 195.383109,92.9952799 194.664115,92.7324219 C193.945121,92.4695638 193.357556,92.0868734 192.90142,91.5843506 C192.445283,91.0818278 192.112845,90.4710693 191.904105,89.7520752 C191.695365,89.0330811 191.590995,88.2329102 191.590995,87.3515625 L191.590995,87.3515625 L204.184989,87.3515625 C204.741629,87.3515625 205.178438,87.1814779 205.495414,86.8413086 C205.81239,86.5011393 205.970878,85.9754232 205.970878,85.2641602 L205.970878,85.2641602 L205.970878,84.3364258 C205.970878,82.8829753 205.785331,81.5377604 205.414237,80.3007812 C205.043143,79.0638021 204.463309,77.993042 203.674735,77.088501 C202.886161,76.18396 201.87725,75.4765625 200.648002,74.9663086 C199.418753,74.4560547 197.938244,74.2009277 196.206473,74.2009277 C194.567476,74.2009277 193.094697,74.4715169 191.788138,75.0126953 C190.481579,75.5538737 189.372163,76.3385824 188.459891,77.3668213 C187.547619,78.3950602 186.851818,79.6475016 186.372489,81.1241455 C185.893159,82.6007894 185.653495,84.2591146 185.653495,86.0991211 C185.653495,88.031901 185.881563,89.7172852 186.337699,91.1552734 C186.793835,92.5932617 187.48577,93.7838542 188.413504,94.7270508 C189.341239,95.6702474 190.497041,96.3737793 191.880912,96.8376465 C193.264782,97.3015137 194.876721,97.5334473 196.716727,97.5334473 Z M200.311698,83.5942383 L191.590995,83.5942383 C191.621919,82.867513 191.73402,82.1833089 191.927298,81.541626 C192.120576,80.899943 192.398897,80.3433024 192.762259,79.8717041 C193.125622,79.4001058 193.581758,79.0251465 194.130668,78.7468262 C194.679577,78.4685059 195.325126,78.3293457 196.067313,78.3293457 C197.536226,78.3293457 198.622448,78.7970785 199.32598,79.7325439 C200.029512,80.6680094 200.358085,81.9552409 200.311698,83.5942383 L200.311698,83.5942383 Z M219.283298,97.5334473 C220.705824,97.5334473 222.000786,97.2164714 223.168185,96.5825195 C224.335585,95.9485677 225.452731,95.0594889 226.519626,93.9152832 L226.519626,93.9152832 L226.519626,96.2114258 C226.519626,96.3815104 226.562147,96.5245361 226.647189,96.6405029 C226.732232,96.7564697 226.871392,96.8531087 227.06467,96.9304199 C227.257948,97.0077311 227.509209,97.061849 227.818454,97.0927734 C228.127699,97.1236979 228.529717,97.1391602 229.024509,97.1391602 C229.488376,97.1391602 229.878797,97.1236979 230.195773,97.0927734 C230.512749,97.061849 230.764011,97.0077311 230.949558,96.9304199 C231.135104,96.8531087 231.266533,96.7564697 231.343845,96.6405029 C231.421156,96.5245361 231.459811,96.3815104 231.459811,96.2114258 L231.459811,96.2114258 L231.459811,65.7817383 C231.459811,65.6271159 231.413425,65.4879557 231.320651,65.3642578 C231.227878,65.2405599 231.073255,65.1361898 230.856784,65.0511475 C230.640313,64.9661051 230.34653,64.9003906 229.975436,64.8540039 C229.604343,64.8076172 229.132744,64.7844238 228.560642,64.7844238 C227.988539,64.7844238 227.51694,64.8076172 227.145847,64.8540039 C226.774753,64.9003906 226.477105,64.9661051 226.252902,65.0511475 C226.0287,65.1361898 225.874077,65.2405599 225.789035,65.3642578 C225.703993,65.4879557 225.661472,65.6271159 225.661472,65.7817383 L225.661472,65.7817383 L225.661472,76.9841309 C224.733737,76.0718587 223.798272,75.3799235 222.855075,74.9083252 C221.911879,74.4367269 220.860446,74.2009277 219.700778,74.2009277 C218.231866,74.2009277 216.933037,74.479248 215.804294,75.0358887 C214.67555,75.5925293 213.732354,76.3888346 212.974704,77.4248047 C212.217054,78.4607747 211.641086,79.7132161 211.246799,81.1821289 C210.852512,82.6510417 210.655368,84.3055013 210.655368,86.1455078 C210.655368,87.6762695 210.809991,89.1335856 211.119235,90.5174561 C211.42848,91.9013265 211.927137,93.1112467 212.615207,94.1472168 C213.303277,95.1831868 214.192355,96.0065511 215.282443,96.6173096 C216.372531,97.228068 217.706149,97.5334473 219.283298,97.5334473 Z M220.744479,92.5932617 C219.940443,92.5932617 219.275567,92.3999837 218.749851,92.0134277 C218.224134,91.6268717 217.802788,91.1127523 217.485812,90.4710693 C217.168837,89.8293864 216.940768,89.0987956 216.801608,88.2792969 C216.662448,87.4597982 216.592868,86.6171061 216.592868,85.7512207 C216.592868,84.931722 216.674045,84.1315511 216.836398,83.350708 C216.998752,82.5698649 217.246148,81.8624674 217.578586,81.2285156 C217.911024,80.5945638 218.351698,80.0881755 218.900607,79.7093506 C219.449517,79.3305257 220.102796,79.1411133 220.860446,79.1411133 C221.695407,79.1411133 222.495578,79.4194336 223.260959,79.9760742 C224.02634,80.5327148 224.826511,81.3367513 225.661472,82.3881836 L225.661472,82.3881836 L225.661472,89.253418 C225.16668,89.8719076 224.710544,90.3937581 224.293063,90.8189697 C223.875583,91.2441813 223.469699,91.5882161 223.075412,91.8510742 C222.681125,92.1139323 222.294569,92.3033447 221.915744,92.4193115 C221.536919,92.5352783 221.146498,92.5932617 220.744479,92.5932617 Z M253.09808,71.6264648 C254.396908,71.6264648 255.285987,71.4022624 255.765316,70.9538574 C256.244646,70.5054525 256.48431,69.6936849 256.48431,68.5185547 C256.48431,67.3898112 256.252377,66.6051025 255.788509,66.1644287 C255.324642,65.7237549 254.443295,65.503418 253.144466,65.503418 C251.830176,65.503418 250.937232,65.731486 250.465633,66.1876221 C249.994035,66.6437581 249.758236,67.4593913 249.758236,68.6345215 C249.758236,69.763265 249.986304,70.5441081 250.44244,70.9770508 C250.898576,71.4099935 251.783789,71.6264648 253.09808,71.6264648 Z M253.121273,97.1391602 C253.693376,97.1391602 254.164974,97.1198324 254.536068,97.0811768 C254.907162,97.0425212 255.20481,96.9845378 255.429012,96.9072266 C255.653215,96.8299154 255.811703,96.7332764 255.904476,96.6173096 C255.99725,96.5013428 256.043636,96.3660482 256.043636,96.2114258 L256.043636,96.2114258 L256.043636,75.5693359 C256.043636,75.4147135 255.99725,75.2794189 255.904476,75.1634521 C255.811703,75.0474854 255.653215,74.9469808 255.429012,74.8619385 C255.20481,74.7768962 254.907162,74.7111816 254.536068,74.6647949 C254.164974,74.6184082 253.693376,74.5952148 253.121273,74.5952148 C252.54917,74.5952148 252.077572,74.6184082 251.706478,74.6647949 C251.335384,74.7111816 251.037736,74.7768962 250.813534,74.8619385 C250.589331,74.9469808 250.430843,75.0474854 250.33807,75.1634521 C250.245297,75.2794189 250.19891,75.4147135 250.19891,75.5693359 L250.19891,75.5693359 L250.19891,96.2114258 C250.19891,96.3660482 250.245297,96.5013428 250.33807,96.6173096 C250.430843,96.7332764 250.589331,96.8299154 250.813534,96.9072266 C251.037736,96.9845378 251.335384,97.0425212 251.706478,97.0811768 C252.077572,97.1198324 252.54917,97.1391602 253.121273,97.1391602 Z M279.405313,97.1391602 C279.961954,97.1391602 280.429687,97.1198324 280.808512,97.0811768 C281.187336,97.0425212 281.484985,96.9845378 281.701456,96.9072266 C281.917927,96.8299154 282.07255,96.7332764 282.165323,96.6173096 C282.258097,96.5013428 282.304483,96.3660482 282.304483,96.2114258 L282.304483,96.2114258 L282.304483,83.4318848 C282.304483,81.9320475 282.173054,80.6486816 281.910196,79.5817871 C281.647338,78.5148926 281.218261,77.5832926 280.622965,76.7869873 C280.027668,75.990682 279.246825,75.3605957 278.280435,74.8967285 C277.314045,74.4328613 276.127319,74.2009277 274.720255,74.2009277 C273.436889,74.2009277 272.203775,74.5101725 271.020914,75.1286621 C269.838053,75.7471517 268.674519,76.6748861 267.530313,77.9118652 L267.530313,77.9118652 L267.530313,75.5229492 C267.530313,75.3683268 267.491658,75.2330322 267.414347,75.1170654 C267.337035,75.0010986 267.209472,74.9044596 267.031656,74.8271484 C266.85384,74.7498372 266.602579,74.6918538 266.277872,74.6531982 C265.953165,74.6145426 265.543416,74.5952148 265.048624,74.5952148 C264.569294,74.5952148 264.171142,74.6145426 263.854166,74.6531982 C263.53719,74.6918538 263.278197,74.7498372 263.077188,74.8271484 C262.876179,74.9044596 262.737019,75.0010986 262.659708,75.1170654 C262.582397,75.2330322 262.543741,75.3683268 262.543741,75.5229492 L262.543741,75.5229492 L262.543741,96.2114258 C262.543741,96.3660482 262.590128,96.5013428 262.682901,96.6173096 C262.775675,96.7332764 262.934163,96.8299154 263.158365,96.9072266 C263.382568,96.9845378 263.680216,97.0425212 264.051309,97.0811768 C264.422403,97.1198324 264.894001,97.1391602 265.466104,97.1391602 C266.038207,97.1391602 266.509805,97.1198324 266.880899,97.0811768 C267.251993,97.0425212 267.549641,96.9845378 267.773844,96.9072266 C267.998046,96.8299154 268.156534,96.7332764 268.249307,96.6173096 C268.342081,96.5013428 268.388468,96.3660482 268.388468,96.2114258 L268.388468,96.2114258 L268.388468,82.4577637 C269.207966,81.4217936 269.996541,80.6332194 270.75419,80.092041 C271.51184,79.5508626 272.261759,79.2802734 273.003946,79.2802734 C273.591511,79.2802734 274.105631,79.3923747 274.546305,79.6165771 C274.986978,79.8407796 275.346475,80.1577555 275.624796,80.5675049 C275.903116,80.9772542 276.115722,81.4681803 276.262613,82.0402832 C276.409504,82.6123861 276.48295,83.4009603 276.48295,84.4060059 L276.48295,84.4060059 L276.48295,96.2114258 C276.48295,96.3660482 276.529337,96.5013428 276.62211,96.6173096 C276.714884,96.7332764 276.869506,96.8299154 277.085977,96.9072266 C277.302449,96.9845378 277.600097,97.0425212 277.978922,97.0811768 C278.357747,97.1198324 278.83321,97.1391602 279.405313,97.1391602 Z M296.017723,97.4638672 C296.450665,97.4638672 296.879742,97.4406738 297.304954,97.3942871 C297.730166,97.3479004 298.124453,97.2821859 298.487815,97.1971436 C298.851178,97.1121012 299.168154,97.0115967 299.438743,96.8956299 C299.709332,96.7796631 299.914207,96.648234 300.053367,96.5013428 C300.192527,96.3544515 300.304629,96.0993245 300.389671,95.7359619 C300.474713,95.3725993 300.517234,94.8507487 300.517234,94.1704102 C300.517234,93.7374674 300.497907,93.3818359 300.459251,93.1035156 C300.420595,92.8251953 300.378074,92.6048584 300.331687,92.4425049 C300.285301,92.2801514 300.219586,92.1719157 300.134544,92.1177979 C300.049502,92.06368 299.960594,92.0366211 299.86782,92.0366211 C299.759585,92.0366211 299.639752,92.06368 299.508323,92.1177979 C299.376894,92.1719157 299.214541,92.2337646 299.021263,92.3033447 C298.827985,92.3729248 298.607648,92.4347738 298.360252,92.4888916 C298.112856,92.5430094 297.834536,92.5700684 297.525291,92.5700684 C296.613019,92.5700684 295.979067,92.2878825 295.623436,91.7235107 C295.267804,91.159139 295.089988,90.3125814 295.089988,89.1838379 L295.089988,89.1838379 L295.089988,79.4658203 L299.612693,79.4658203 C299.906476,79.4658203 300.130678,79.284139 300.285301,78.9207764 C300.439923,78.5574137 300.517234,77.9505208 300.517234,77.1000977 C300.517234,76.6516927 300.497907,76.2728678 300.459251,75.963623 C300.420595,75.6543783 300.362612,75.410848 300.285301,75.2330322 C300.20799,75.0552165 300.111351,74.927653 299.995384,74.8503418 C299.879417,74.7730306 299.744122,74.734375 299.5895,74.734375 L299.5895,74.734375 L295.089988,74.734375 L295.089988,70.1188965 C295.089988,69.9642741 295.043602,69.8251139 294.950828,69.701416 C294.858055,69.5777181 294.703432,69.473348 294.486961,69.3883057 C294.27049,69.3032633 293.972841,69.2414144 293.594017,69.2027588 C293.215192,69.1641032 292.739728,69.1447754 292.167625,69.1447754 C291.610984,69.1447754 291.143252,69.1641032 290.764427,69.2027588 C290.385602,69.2414144 290.084088,69.3032633 289.859886,69.3883057 C289.635683,69.473348 289.481061,69.5777181 289.396019,69.701416 C289.310976,69.8251139 289.268455,69.9642741 289.268455,70.1188965 L289.268455,70.1188965 L289.268455,74.734375 L286.809959,74.734375 C286.655337,74.734375 286.520042,74.7730306 286.404075,74.8503418 C286.288108,74.927653 286.191469,75.0552165 286.114158,75.2330322 C286.036847,75.410848 285.978864,75.6543783 285.940208,75.963623 C285.901552,76.2728678 285.882225,76.6516927 285.882225,77.1000977 C285.882225,77.9505208 285.959536,78.5574137 286.114158,78.9207764 C286.268781,79.284139 286.492983,79.4658203 286.786766,79.4658203 L286.786766,79.4658203 L289.268455,79.4658203 L289.268455,90.0651855 C289.268455,91.3330892 289.399884,92.4309082 289.662742,93.3586426 C289.9256,94.286377 290.33535,95.0556234 290.89199,95.6663818 C291.448631,96.2771403 292.152163,96.7294108 293.002586,97.0231934 C293.853009,97.3169759 294.858055,97.4638672 296.017723,97.4638672 Z M314.694341,97.5334473 C315.714849,97.5334473 316.673508,97.4677327 317.570317,97.3363037 C318.467127,97.2048747 319.263433,97.0502523 319.959233,96.8724365 C320.655034,96.6946208 321.227137,96.5129395 321.675542,96.3273926 C322.123947,96.1418457 322.398402,95.9949544 322.498906,95.8867188 C322.599411,95.7784831 322.680588,95.6663818 322.742437,95.550415 C322.804286,95.4344482 322.850672,95.2914225 322.881597,95.1213379 C322.912521,94.9512533 322.935715,94.7463786 322.951177,94.5067139 C322.966639,94.2670492 322.97437,93.9771322 322.97437,93.6369629 C322.97437,93.2504069 322.962774,92.9295654 322.93958,92.6744385 C322.916387,92.4193115 322.873866,92.222168 322.812017,92.0830078 C322.750168,91.9438477 322.672857,91.8472087 322.580083,91.7930908 C322.48731,91.738973 322.371343,91.7119141 322.232183,91.7119141 C322.000249,91.7119141 321.698735,91.7853597 321.327642,91.932251 C320.956548,92.0791423 320.488815,92.2414958 319.924443,92.4193115 C319.360072,92.5971273 318.69133,92.7594808 317.918218,92.9063721 C317.145106,93.0532633 316.248296,93.126709 315.227788,93.126709 C314.222743,93.126709 313.360723,92.9952799 312.641729,92.7324219 C311.922734,92.4695638 311.335169,92.0868734 310.879033,91.5843506 C310.422897,91.0818278 310.090459,90.4710693 309.881719,89.7520752 C309.672979,89.0330811 309.568608,88.2329102 309.568608,87.3515625 L309.568608,87.3515625 L322.162603,87.3515625 C322.719243,87.3515625 323.156052,87.1814779 323.473027,86.8413086 C323.790003,86.5011393 323.948491,85.9754232 323.948491,85.2641602 L323.948491,85.2641602 L323.948491,84.3364258 C323.948491,82.8829753 323.762944,81.5377604 323.391851,80.3007812 C323.020757,79.0638021 322.440923,77.993042 321.652349,77.088501 C320.863775,76.18396 319.854863,75.4765625 318.625615,74.9663086 C317.396367,74.4560547 315.915858,74.2009277 314.184087,74.2009277 C312.54509,74.2009277 311.072311,74.4715169 309.765752,75.0126953 C308.459193,75.5538737 307.349777,76.3385824 306.437505,77.3668213 C305.525233,78.3950602 304.829432,79.6475016 304.350103,81.1241455 C303.870773,82.6007894 303.631108,84.2591146 303.631108,86.0991211 C303.631108,88.031901 303.859177,89.7172852 304.315313,91.1552734 C304.771449,92.5932617 305.463384,93.7838542 306.391118,94.7270508 C307.318853,95.6702474 308.474655,96.3737793 309.858525,96.8376465 C311.242396,97.3015137 312.854334,97.5334473 314.694341,97.5334473 Z M318.289312,83.5942383 L309.568608,83.5942383 C309.599533,82.867513 309.711634,82.1833089 309.904912,81.541626 C310.09819,80.899943 310.376511,80.3433024 310.739873,79.8717041 C311.103236,79.4001058 311.559372,79.0251465 312.108281,78.7468262 C312.657191,78.4685059 313.302739,78.3293457 314.044927,78.3293457 C315.51384,78.3293457 316.600062,78.7970785 317.303594,79.7325439 C318.007126,80.6680094 318.335698,81.9552409 318.289312,83.5942383 L318.289312,83.5942383 Z M332.350451,97.1391602 C332.922554,97.1391602 333.394153,97.1198324 333.765246,97.0811768 C334.13634,97.0425212 334.433988,96.9845378 334.658191,96.9072266 C334.882393,96.8299154 335.040881,96.7332764 335.133655,96.6173096 C335.226428,96.5013428 335.272815,96.3660482 335.272815,96.2114258 L335.272815,96.2114258 L335.272815,83.315918 C335.705757,82.6355794 336.111641,82.0634766 336.490466,81.5996094 C336.869291,81.1357422 337.232654,80.7646484 337.580554,80.4863281 C337.928454,80.2080078 338.264758,80.0031331 338.589465,79.8717041 C338.914172,79.7402751 339.238879,79.6745605 339.563586,79.6745605 C339.841906,79.6745605 340.097033,79.7016195 340.328967,79.7557373 C340.560901,79.8098551 340.773506,79.8678385 340.966784,79.9296875 C341.160062,79.9915365 341.334013,80.0495199 341.488635,80.1036377 C341.643257,80.1577555 341.782418,80.1848145 341.906115,80.1848145 C342.060738,80.1848145 342.188301,80.1461589 342.288806,80.0688477 C342.38931,79.9915365 342.470487,79.8523763 342.532336,79.6513672 C342.594185,79.4503581 342.640572,79.1720378 342.671496,78.8164062 C342.702421,78.4607747 342.717883,78.0046387 342.717883,77.447998 C342.717883,76.8913574 342.710152,76.4506836 342.69469,76.1259766 C342.679227,75.8012695 342.656034,75.5577393 342.62511,75.3953857 C342.594185,75.2330322 342.559395,75.1054688 342.520739,75.0126953 C342.482084,74.9199219 342.420235,74.8348796 342.335193,74.7575684 C342.25015,74.6802572 342.114856,74.6068115 341.929309,74.5372314 C341.743762,74.4676514 341.527291,74.4058024 341.279895,74.3516846 C341.032499,74.2975667 340.792834,74.2589111 340.560901,74.2357178 C340.328967,74.2125244 340.112496,74.2009277 339.911487,74.2009277 C339.478544,74.2009277 339.045601,74.2589111 338.612658,74.3748779 C338.179716,74.4908447 337.746773,74.6957194 337.31383,74.989502 C336.880888,75.2832845 336.424752,75.6814372 335.945422,76.18396 C335.466093,76.6864827 334.955839,77.3243001 334.41466,78.0974121 L334.41466,78.0974121 L334.41466,75.5229492 C334.41466,75.3683268 334.376005,75.2330322 334.298694,75.1170654 C334.221382,75.0010986 334.093819,74.9044596 333.916003,74.8271484 C333.738187,74.7498372 333.486926,74.6918538 333.162219,74.6531982 C332.837512,74.6145426 332.427763,74.5952148 331.932971,74.5952148 C331.453642,74.5952148 331.055489,74.6145426 330.738513,74.6531982 C330.421537,74.6918538 330.162545,74.7498372 329.961535,74.8271484 C329.760526,74.9044596 329.621366,75.0010986 329.544055,75.1170654 C329.466744,75.2330322 329.428088,75.3683268 329.428088,75.5229492 L329.428088,75.5229492 L329.428088,96.2114258 C329.428088,96.3660482 329.474475,96.5013428 329.567248,96.6173096 C329.660022,96.7332764 329.81851,96.8299154 330.042712,96.9072266 C330.266915,96.9845378 330.564563,97.0425212 330.935656,97.0811768 C331.30675,97.1198324 331.778349,97.1391602 332.350451,97.1391602 Z M349.890595,71.6264648 C351.189423,71.6264648 352.078502,71.4022624 352.557831,70.9538574 C353.037161,70.5054525 353.276826,69.6936849 353.276826,68.5185547 C353.276826,67.3898112 353.044892,66.6051025 352.581025,66.1644287 C352.117158,65.7237549 351.23581,65.503418 349.936982,65.503418 C348.622691,65.503418 347.729747,65.731486 347.258149,66.1876221 C346.786551,66.6437581 346.550751,67.4593913 346.550751,68.6345215 C346.550751,69.763265 346.778819,70.5441081 347.234955,70.9770508 C347.691092,71.4099935 348.576305,71.6264648 349.890595,71.6264648 Z M349.913788,97.1391602 C350.485891,97.1391602 350.95749,97.1198324 351.328583,97.0811768 C351.699677,97.0425212 351.997325,96.9845378 352.221528,96.9072266 C352.44573,96.8299154 352.604218,96.7332764 352.696992,96.6173096 C352.789765,96.5013428 352.836152,96.3660482 352.836152,96.2114258 L352.836152,96.2114258 L352.836152,75.5693359 C352.836152,75.4147135 352.789765,75.2794189 352.696992,75.1634521 C352.604218,75.0474854 352.44573,74.9469808 352.221528,74.8619385 C351.997325,74.7768962 351.699677,74.7111816 351.328583,74.6647949 C350.95749,74.6184082 350.485891,74.5952148 349.913788,74.5952148 C349.341686,74.5952148 348.870087,74.6184082 348.498994,74.6647949 C348.1279,74.7111816 347.830252,74.7768962 347.606049,74.8619385 C347.381847,74.9469808 347.223359,75.0474854 347.130585,75.1634521 C347.037812,75.2794189 346.991425,75.4147135 346.991425,75.5693359 L346.991425,75.5693359 L346.991425,96.2114258 C346.991425,96.3660482 347.037812,96.5013428 347.130585,96.6173096 C347.223359,96.7332764 347.381847,96.8299154 347.606049,96.9072266 C347.830252,96.9845378 348.1279,97.0425212 348.498994,97.0811768 C348.870087,97.1198324 349.341686,97.1391602 349.913788,97.1391602 Z M368.915114,97.5334473 C370.816969,97.5334473 372.47916,97.2473958 373.901686,96.675293 C375.324212,96.1031901 376.507073,95.2914225 377.45027,94.2399902 C378.393467,93.1885579 379.096999,91.9361165 379.560866,90.482666 C380.024733,89.0292155 380.256667,87.4211426 380.256667,85.6584473 C380.256667,83.8184408 380.040195,82.1871745 379.607252,80.7646484 C379.17431,79.3421224 378.513299,78.1437988 377.62422,77.1696777 C376.735141,76.1955566 375.610264,75.4572347 374.249586,74.9547119 C372.888909,74.4521891 371.280836,74.2009277 369.425368,74.2009277 C367.523512,74.2009277 365.865187,74.4869792 364.450392,75.059082 C363.035597,75.6311849 361.856601,76.4390869 360.913405,77.4827881 C359.970208,78.5264893 359.262811,79.7789307 358.791212,81.2401123 C358.319614,82.7012939 358.083815,84.3132324 358.083815,86.0759277 C358.083815,87.900472 358.300286,89.5240072 358.733229,90.9465332 C359.166172,92.3690592 359.831048,93.5673828 360.727858,94.5415039 C361.624668,95.515625 362.753411,96.2578125 364.114088,96.7680664 C365.474765,97.2783203 367.075107,97.5334473 368.915114,97.5334473 Z M369.123854,92.871582 C368.165195,92.871582 367.361159,92.6976318 366.711745,92.3497314 C366.062331,92.0018311 365.548211,91.5109049 365.169386,90.8769531 C364.790561,90.2430013 364.516107,89.4969482 364.346022,88.6387939 C364.175937,87.7806396 364.090895,86.8413086 364.090895,85.8208008 C364.090895,84.7229818 364.195265,83.7449951 364.404005,82.8868408 C364.612746,82.0286865 364.925856,81.2942301 365.343336,80.6834717 C365.760817,80.0727132 366.294264,79.608846 366.943678,79.2918701 C367.593092,78.9748942 368.350742,78.8164062 369.216627,78.8164062 C370.190749,78.8164062 370.998651,78.994222 371.640334,79.3498535 C372.282016,79.705485 372.796136,80.2002767 373.182692,80.8342285 C373.569248,81.4681803 373.843703,82.2142334 374.006056,83.0723877 C374.16841,83.930542 374.249586,84.869873 374.249586,85.8903809 C374.249586,86.9881999 374.149082,87.9661865 373.948073,88.8243408 C373.747064,89.6824951 373.437819,90.4130859 373.020338,91.0161133 C372.602858,91.6191406 372.069411,92.0791423 371.419997,92.3961182 C370.770583,92.7130941 370.005202,92.871582 369.123854,92.871582 Z M388.47308,97.1391602 C389.045183,97.1391602 389.516781,97.1198324 389.887875,97.0811768 C390.258968,97.0425212 390.556617,96.9845378 390.780819,96.9072266 C391.005021,96.8299154 391.163509,96.7332764 391.256283,96.6173096 C391.349056,96.5013428 391.395443,96.3660482 391.395443,96.2114258 L391.395443,96.2114258 L391.395443,83.315918 C391.828386,82.6355794 392.23427,82.0634766 392.613094,81.5996094 C392.991919,81.1357422 393.355282,80.7646484 393.703182,80.4863281 C394.051083,80.2080078 394.387386,80.0031331 394.712093,79.8717041 C395.0368,79.7402751 395.361507,79.6745605 395.686215,79.6745605 C395.964535,79.6745605 396.219662,79.7016195 396.451595,79.7557373 C396.683529,79.8098551 396.896135,79.8678385 397.089413,79.9296875 C397.282691,79.9915365 397.456641,80.0495199 397.611263,80.1036377 C397.765886,80.1577555 397.905046,80.1848145 398.028744,80.1848145 C398.183366,80.1848145 398.31093,80.1461589 398.411434,80.0688477 C398.511939,79.9915365 398.593116,79.8523763 398.654965,79.6513672 C398.716813,79.4503581 398.7632,79.1720378 398.794125,78.8164062 C398.825049,78.4607747 398.840511,78.0046387 398.840511,77.447998 C398.840511,76.8913574 398.83278,76.4506836 398.817318,76.1259766 C398.801856,75.8012695 398.778662,75.5577393 398.747738,75.3953857 C398.716813,75.2330322 398.682023,75.1054688 398.643368,75.0126953 C398.604712,74.9199219 398.542863,74.8348796 398.457821,74.7575684 C398.372779,74.6802572 398.237484,74.6068115 398.051937,74.5372314 C397.86639,74.4676514 397.649919,74.4058024 397.402523,74.3516846 C397.155127,74.2975667 396.915463,74.2589111 396.683529,74.2357178 C396.451595,74.2125244 396.235124,74.2009277 396.034115,74.2009277 C395.601172,74.2009277 395.168229,74.2589111 394.735287,74.3748779 C394.302344,74.4908447 393.869401,74.6957194 393.436459,74.989502 C393.003516,75.2832845 392.54738,75.6814372 392.06805,76.18396 C391.588721,76.6864827 391.078467,77.3243001 390.537289,78.0974121 L390.537289,78.0974121 L390.537289,75.5229492 C390.537289,75.3683268 390.498633,75.2330322 390.421322,75.1170654 C390.344011,75.0010986 390.216447,74.9044596 390.038632,74.8271484 C389.860816,74.7498372 389.609554,74.6918538 389.284847,74.6531982 C388.96014,74.6145426 388.550391,74.5952148 388.055599,74.5952148 C387.57627,74.5952148 387.178117,74.6145426 386.861141,74.6531982 C386.544165,74.6918538 386.285173,74.7498372 386.084164,74.8271484 C385.883155,74.9044596 385.743994,75.0010986 385.666683,75.1170654 C385.589372,75.2330322 385.550716,75.3683268 385.550716,75.5229492 L385.550716,75.5229492 L385.550716,96.2114258 C385.550716,96.3660482 385.597103,96.5013428 385.689877,96.6173096 C385.78265,96.7332764 385.941138,96.8299154 386.165341,96.9072266 C386.389543,96.9845378 386.687191,97.0425212 387.058285,97.0811768 C387.429379,97.1198324 387.900977,97.1391602 388.47308,97.1391602 Z M408.147013,97.5334473 C409.430378,97.5334473 410.620971,97.3826904 411.71879,97.0811768 C412.816609,96.7796631 413.767537,96.3273926 414.571573,95.7243652 C415.37561,95.1213379 415.997965,94.3714193 416.438638,93.4746094 C416.879312,92.5777995 417.099649,91.5418294 417.099649,90.3666992 C417.099649,89.4235026 416.952758,88.6078695 416.658975,87.9197998 C416.365193,87.2317301 415.978637,86.6402995 415.499307,86.1455078 C415.019978,85.6507161 414.474934,85.2332357 413.864176,84.8930664 C413.253417,84.5528971 412.634928,84.255249 412.008707,84.0001221 C411.382486,83.7449951 410.763997,83.509196 410.153238,83.2927246 C409.54248,83.0762533 408.997436,82.8443197 408.518106,82.5969238 C408.038777,82.349528 407.652221,82.0634766 407.358438,81.7387695 C407.064656,81.4140625 406.917764,81.0120443 406.917764,80.5327148 C406.917764,80.2234701 406.979613,79.9335531 407.103311,79.6629639 C407.227009,79.3923747 407.412556,79.1565755 407.659952,78.9555664 C407.907348,78.7545573 408.224324,78.5999349 408.61088,78.4916992 C408.997436,78.3834635 409.453572,78.3293457 409.979288,78.3293457 C410.721475,78.3293457 411.382486,78.4105225 411.96232,78.572876 C412.542154,78.7352295 413.052408,78.9091797 413.493082,79.0947266 C413.933756,79.2802734 414.300984,79.4542236 414.594766,79.6165771 C414.888549,79.7789307 415.10502,79.8601074 415.24418,79.8601074 C415.367878,79.8601074 415.476114,79.8330485 415.568888,79.7789307 C415.661661,79.7248128 415.735107,79.6204427 415.789224,79.4658203 C415.843342,79.3111979 415.881998,79.1024577 415.905191,78.8395996 C415.928385,78.5767415 415.939981,78.2365723 415.939981,77.8190918 C415.939981,77.4634603 415.928385,77.1658122 415.905191,76.9261475 C415.881998,76.6864827 415.854939,76.4854736 415.824014,76.3231201 C415.79309,76.1607666 415.746703,76.0216064 415.684854,75.9056396 C415.623005,75.7896729 415.518635,75.6737061 415.371744,75.5577393 C415.224853,75.4417725 414.981322,75.3026123 414.641153,75.1402588 C414.300984,74.9779053 413.883503,74.8271484 413.388712,74.6879883 C412.89392,74.5488281 412.341145,74.4328613 411.730387,74.3400879 C411.119628,74.2473145 410.489542,74.2009277 409.840128,74.2009277 C408.5413,74.2009277 407.370035,74.3632812 406.326334,74.6879883 C405.282633,75.0126953 404.397419,75.4688314 403.670694,76.0563965 C402.943969,76.6439616 402.387328,77.351359 402.000772,78.1785889 C401.614216,79.0058187 401.420938,79.9142253 401.420938,80.9038086 C401.420938,81.8779297 401.563964,82.7128906 401.850015,83.4086914 C402.136067,84.1044922 402.514892,84.6997884 402.98649,85.1945801 C403.458088,85.6893717 403.991536,86.1068522 404.586832,86.4470215 C405.182128,86.7871908 405.792887,87.0887044 406.419107,87.3515625 C407.045328,87.6144206 407.656086,87.8540853 408.251383,88.0705566 C408.846679,88.287028 409.380126,88.5189616 409.851724,88.7663574 C410.323323,89.0137533 410.702148,89.3036702 410.988199,89.6361084 C411.27425,89.9685465 411.417276,90.3666992 411.417276,90.8305664 C411.417276,91.2325846 411.339965,91.5882161 411.185343,91.8974609 C411.03072,92.2067057 410.802652,92.4618327 410.501138,92.6628418 C410.199625,92.8638509 409.843993,93.0184733 409.434244,93.126709 C409.024495,93.2349447 408.556762,93.2890625 408.031046,93.2890625 C407.196085,93.2890625 406.450032,93.1885579 405.792887,92.9875488 C405.135741,92.7865397 404.559773,92.5700684 404.064981,92.3381348 C403.57019,92.1062012 403.156575,91.8935954 402.824137,91.7003174 C402.491698,91.5070394 402.240437,91.4104004 402.070352,91.4104004 C401.931192,91.4104004 401.815225,91.4374593 401.722452,91.4915771 C401.629679,91.545695 401.552367,91.6539307 401.490518,91.8162842 C401.428669,91.9786377 401.382283,92.195109 401.351358,92.4656982 C401.320434,92.7362874 401.304972,93.0957845 401.304972,93.5441895 C401.304972,94.224528 401.351358,94.7386475 401.444132,95.0865479 C401.536905,95.4344482 401.668334,95.6895752 401.838419,95.8519287 C402.008503,96.0142822 402.279093,96.1882324 402.650186,96.3737793 C403.02128,96.5593262 403.485147,96.7410075 404.041788,96.9188232 C404.598429,97.096639 405.228515,97.2435303 405.932047,97.3594971 C406.635579,97.4754639 407.373901,97.5334473 408.147013,97.5334473 Z" id="unboundedinteriors" fill="#BBBBBB"></path>
        </g>
    </g>
</svg>