<?xml version="1.0" encoding="UTF-8"?>
<svg width="415px" height="65px" viewBox="0 0 415 65" version="1.1" xmlns="http://www.w3.org/2000/svg" xmlns:xlink="http://www.w3.org/1999/xlink">
    <title>Group 2</title>
    <g id="Page-1" stroke="none" stroke-width="1" fill="none" fill-rule="evenodd">
        <g id="Group-2" fill-rule="nonzero">
            <path d="M47.3876953,51.0864258 C48.2910156,51.0864258 49.0356445,51.0559082 49.621582,50.994873 C50.2075195,50.9338379 50.6713867,50.8422852 51.0131836,50.7202148 C51.3549805,50.5981445 51.5991211,50.4455566 51.7456055,50.2624512 C51.8920898,50.0793457 51.965332,49.8657227 51.965332,49.621582 L51.965332,49.621582 L51.965332,28.7109375 C51.965332,26.8310547 51.7700195,25.0488281 51.3793945,23.3642578 C50.9887695,21.6796875 50.3356934,20.2087402 49.420166,18.951416 C48.5046387,17.6940918 47.3022461,16.6992188 45.8129883,15.9667969 C44.3237305,15.234375 42.4926758,14.8681641 40.3198242,14.8681641 C39.3676758,14.8681641 38.4338379,14.9841309 37.5183105,15.2160645 C36.6027832,15.447998 35.6872559,15.802002 34.7717285,16.2780762 C33.8562012,16.7541504 32.9284668,17.3706055 31.9885254,18.1274414 C31.048584,18.8842773 30.090332,19.7875977 29.1137695,20.8374023 C28.6987305,19.934082 28.1860352,19.1162109 27.5756836,18.3837891 C26.965332,17.6513672 26.2390137,17.0227051 25.3967285,16.4978027 C24.5544434,15.9729004 23.5961914,15.5700684 22.5219727,15.2893066 C21.4477539,15.0085449 20.2392578,14.8681641 18.8964844,14.8681641 C16.9433594,14.8681641 15.0695801,15.3564453 13.2751465,16.3330078 C11.4807129,17.3095703 9.68017578,18.7744141 7.87353516,20.7275391 L7.87353516,20.7275391 L7.87353516,16.9555664 C7.87353516,16.7114258 7.8125,16.4978027 7.69042969,16.3146973 C7.56835937,16.1315918 7.36694336,15.9790039 7.08618164,15.8569336 C6.80541992,15.7348633 6.40869141,15.6433105 5.89599609,15.5822754 C5.38330078,15.5212402 4.73632812,15.4907227 3.95507812,15.4907227 C3.19824219,15.4907227 2.56958008,15.5212402 2.0690918,15.5822754 C1.56860352,15.6433105 1.15966797,15.7348633 0.842285156,15.8569336 C0.524902344,15.9790039 0.305175781,16.1315918 0.183105469,16.3146973 C0.0610351562,16.4978027 0,16.7114258 0,16.9555664 L0,16.9555664 L0,49.621582 C0,49.8657227 0.0732421875,50.0793457 0.219726562,50.2624512 C0.366210938,50.4455566 0.616455078,50.5981445 0.970458984,50.7202148 C1.32446289,50.8422852 1.79443359,50.9338379 2.38037109,50.994873 C2.96630859,51.0559082 3.7109375,51.0864258 4.61425781,51.0864258 C5.51757812,51.0864258 6.26220703,51.0559082 6.84814453,50.994873 C7.43408203,50.9338379 7.90405273,50.8422852 8.25805664,50.7202148 C8.61206055,50.5981445 8.86230469,50.4455566 9.00878906,50.2624512 C9.15527344,50.0793457 9.22851562,49.8657227 9.22851562,49.621582 L9.22851562,49.621582 L9.22851562,27.9052734 C10.5224609,26.2695312 11.730957,25.0244141 12.8540039,24.1699219 C13.9770508,23.3154297 15.1000977,22.8881836 16.2231445,22.8881836 C17.1020508,22.8881836 17.8710938,23.0651855 18.5302734,23.4191895 C19.1894531,23.7731934 19.7265625,24.2736816 20.1416016,24.9206543 C20.5566406,25.567627 20.8679199,26.3427734 21.0754395,27.2460938 C21.282959,28.1494141 21.3867188,29.1503906 21.3867188,30.2490234 L21.3867188,30.2490234 L21.3867188,49.621582 C21.3867188,49.8657227 21.4599609,50.0793457 21.6064453,50.2624512 C21.7529297,50.4455566 22.0031738,50.5981445 22.3571777,50.7202148 C22.7111816,50.8422852 23.1811523,50.9338379 23.7670898,50.994873 C24.3530273,51.0559082 25.0976562,51.0864258 26.0009766,51.0864258 C26.8798828,51.0864258 27.6123047,51.0559082 28.1982422,50.994873 C28.7841797,50.9338379 29.2541504,50.8422852 29.6081543,50.7202148 C29.9621582,50.5981445 30.2124023,50.4455566 30.3588867,50.2624512 C30.5053711,50.0793457 30.5786133,49.8657227 30.5786133,49.621582 L30.5786133,49.621582 L30.5786133,27.9052734 C31.8969727,26.2695312 33.1176758,25.0244141 34.2407227,24.1699219 C35.3637695,23.3154297 36.4746094,22.8881836 37.5732422,22.8881836 C38.4765625,22.8881836 39.251709,23.0651855 39.8986816,23.4191895 C40.5456543,23.7731934 41.0827637,24.2736816 41.5100098,24.9206543 C41.9372559,25.567627 42.2546387,26.3427734 42.4621582,27.2460938 C42.6696777,28.1494141 42.7734375,29.1503906 42.7734375,30.2490234 L42.7734375,30.2490234 L42.7734375,49.621582 C42.7734375,49.8657227 42.8405762,50.0793457 42.9748535,50.2624512 C43.1091309,50.4455566 43.3532715,50.5981445 43.7072754,50.7202148 C44.0612793,50.8422852 44.53125,50.9338379 45.1171875,50.994873 C45.703125,51.0559082 46.4599609,51.0864258 47.3876953,51.0864258 Z M76.1352539,51.7089844 C79.1381836,51.7089844 81.7626953,51.2573242 84.0087891,50.3540039 C86.2548828,49.4506836 88.1225586,48.1689453 89.6118164,46.5087891 C91.1010742,44.8486328 92.2119141,42.8710938 92.9443359,40.5761719 C93.6767578,38.28125 94.0429688,35.7421875 94.0429688,32.9589844 C94.0429688,30.0537109 93.7011719,27.4780273 93.0175781,25.2319336 C92.3339844,22.9858398 91.2902832,21.09375 89.8864746,19.5556641 C88.482666,18.0175781 86.706543,16.8518066 84.5581055,16.0583496 C82.409668,15.2648926 79.8706055,14.8681641 76.940918,14.8681641 C73.9379883,14.8681641 71.3195801,15.3198242 69.0856934,16.2231445 C66.8518066,17.1264648 64.9902344,18.4020996 63.5009766,20.0500488 C62.0117188,21.697998 60.8947754,23.6755371 60.1501465,25.982666 C59.4055176,28.2897949 59.0332031,30.8349609 59.0332031,33.6181641 C59.0332031,36.4990234 59.375,39.0625 60.0585938,41.3085938 C60.7421875,43.5546875 61.7919922,45.4467773 63.2080078,46.9848633 C64.6240234,48.5229492 66.40625,49.6948242 68.5546875,50.5004883 C70.703125,51.3061523 73.2299805,51.7089844 76.1352539,51.7089844 Z M76.4648438,44.3481445 C74.9511719,44.3481445 73.6816406,44.0734863 72.65625,43.5241699 C71.6308594,42.9748535 70.8190918,42.199707 70.2209473,41.1987305 C69.6228027,40.1977539 69.1894531,39.0197754 68.9208984,37.6647949 C68.6523438,36.3098145 68.5180664,34.8266602 68.5180664,33.215332 C68.5180664,31.4819336 68.6828613,29.9377441 69.0124512,28.5827637 C69.342041,27.2277832 69.8364258,26.0681152 70.4956055,25.1037598 C71.1547852,24.1394043 71.9970703,23.4069824 73.0224609,22.9064941 C74.0478516,22.4060059 75.2441406,22.1557617 76.6113281,22.1557617 C78.1494141,22.1557617 79.4250488,22.4365234 80.4382324,22.9980469 C81.451416,23.5595703 82.2631836,24.3408203 82.8735352,25.3417969 C83.4838867,26.3427734 83.9172363,27.520752 84.173584,28.8757324 C84.4299316,30.2307129 84.5581055,31.7138672 84.5581055,33.3251953 C84.5581055,35.0585938 84.3994141,36.6027832 84.0820312,37.9577637 C83.7646484,39.3127441 83.2763672,40.4663086 82.6171875,41.418457 C81.9580078,42.3706055 81.1157227,43.0969238 80.090332,43.5974121 C79.0649414,44.0979004 77.8564453,44.3481445 76.4648438,44.3481445 Z M113.085938,51.7089844 C115.332031,51.7089844 117.376709,51.2084961 119.219971,50.2075195 C121.063232,49.206543 122.827148,47.8027344 124.511719,45.9960938 L124.511719,45.9960938 L124.511719,49.621582 C124.511719,49.8901367 124.578857,50.1159668 124.713135,50.2990723 C124.847412,50.4821777 125.067139,50.6347656 125.372314,50.7568359 C125.67749,50.8789062 126.074219,50.9643555 126.5625,51.0131836 C127.050781,51.0620117 127.685547,51.0864258 128.466797,51.0864258 C129.199219,51.0864258 129.815674,51.0620117 130.316162,51.0131836 C130.81665,50.9643555 131.213379,50.8789062 131.506348,50.7568359 C131.799316,50.6347656 132.006836,50.4821777 132.128906,50.2990723 C132.250977,50.1159668 132.312012,49.8901367 132.312012,49.621582 L132.312012,49.621582 L132.312012,1.57470703 C132.312012,1.33056641 132.23877,1.11083984 132.092285,0.915527344 C131.945801,0.720214844 131.70166,0.555419922 131.359863,0.421142578 C131.018066,0.286865234 130.554199,0.183105469 129.968262,0.109863281 C129.382324,0.0366210938 128.637695,0 127.734375,0 C126.831055,0 126.086426,0.0366210938 125.500488,0.109863281 C124.914551,0.183105469 124.44458,0.286865234 124.090576,0.421142578 C123.736572,0.555419922 123.492432,0.720214844 123.358154,0.915527344 C123.223877,1.11083984 123.156738,1.33056641 123.156738,1.57470703 L123.156738,1.57470703 L123.156738,19.2626953 C121.691895,17.8222656 120.214844,16.7297363 118.725586,15.9851074 C117.236328,15.2404785 115.576172,14.8681641 113.745117,14.8681641 C111.425781,14.8681641 109.375,15.3076172 107.592773,16.1865234 C105.810547,17.0654297 104.321289,18.3227539 103.125,19.9584961 C101.928711,21.5942383 101.019287,23.5717773 100.396729,25.8911133 C99.7741699,28.2104492 99.4628906,30.8227539 99.4628906,33.7280273 C99.4628906,36.1450195 99.7070312,38.4460449 100.195312,40.6311035 C100.683594,42.8161621 101.470947,44.7265625 102.557373,46.3623047 C103.643799,47.9980469 105.047607,49.2980957 106.768799,50.2624512 C108.48999,51.2268066 110.595703,51.7089844 113.085938,51.7089844 Z M115.393066,43.9086914 C114.123535,43.9086914 113.07373,43.6035156 112.243652,42.9931641 C111.413574,42.3828125 110.748291,41.5710449 110.247803,40.5578613 C109.747314,39.5446777 109.387207,38.3911133 109.16748,37.097168 C108.947754,35.8032227 108.837891,34.4726562 108.837891,33.1054688 C108.837891,31.8115234 108.966064,30.5480957 109.222412,29.3151855 C109.47876,28.0822754 109.869385,26.965332 110.394287,25.9643555 C110.919189,24.9633789 111.61499,24.1638184 112.481689,23.5656738 C113.348389,22.9675293 114.379883,22.668457 115.576172,22.668457 C116.894531,22.668457 118.157959,23.1079102 119.366455,23.9868164 C120.574951,24.8657227 121.838379,26.1352539 123.156738,27.7954102 L123.156738,27.7954102 L123.156738,38.6352539 C122.375488,39.6118164 121.655273,40.435791 120.996094,41.1071777 C120.336914,41.7785645 119.696045,42.3217773 119.073486,42.7368164 C118.450928,43.1518555 117.840576,43.4509277 117.242432,43.6340332 C116.644287,43.8171387 116.027832,43.9086914 115.393066,43.9086914 Z M157.141113,51.7089844 C158.752441,51.7089844 160.266113,51.6052246 161.682129,51.3977051 C163.098145,51.1901855 164.355469,50.9460449 165.454102,50.6652832 C166.552734,50.3845215 167.456055,50.0976562 168.164062,49.8046875 C168.87207,49.5117188 169.30542,49.2797852 169.464111,49.1088867 C169.622803,48.9379883 169.750977,48.7609863 169.848633,48.5778809 C169.946289,48.3947754 170.019531,48.1689453 170.068359,47.9003906 C170.117188,47.6318359 170.153809,47.3083496 170.178223,46.9299316 C170.202637,46.5515137 170.214844,46.09375 170.214844,45.5566406 C170.214844,44.9462891 170.196533,44.4396973 170.159912,44.0368652 C170.123291,43.6340332 170.056152,43.3227539 169.958496,43.1030273 C169.86084,42.8833008 169.73877,42.7307129 169.592285,42.6452637 C169.445801,42.5598145 169.262695,42.5170898 169.042969,42.5170898 C168.676758,42.5170898 168.200684,42.6330566 167.614746,42.8649902 C167.028809,43.0969238 166.290283,43.3532715 165.39917,43.6340332 C164.508057,43.9147949 163.452148,44.1711426 162.231445,44.4030762 C161.010742,44.6350098 159.594727,44.7509766 157.983398,44.7509766 C156.396484,44.7509766 155.0354,44.543457 153.900146,44.128418 C152.764893,43.7133789 151.837158,43.1091309 151.116943,42.3156738 C150.396729,41.5222168 149.871826,40.5578613 149.542236,39.4226074 C149.212646,38.2873535 149.047852,37.0239258 149.047852,35.6323242 L149.047852,35.6323242 L168.933105,35.6323242 C169.812012,35.6323242 170.501709,35.3637695 171.002197,34.8266602 C171.502686,34.2895508 171.75293,33.4594727 171.75293,32.3364258 L171.75293,32.3364258 L171.75293,30.871582 C171.75293,28.5766602 171.459961,26.4526367 170.874023,24.4995117 C170.288086,22.5463867 169.372559,20.8557129 168.127441,19.4274902 C166.882324,17.9992676 165.289307,16.8823242 163.348389,16.0766602 C161.407471,15.2709961 159.069824,14.8681641 156.335449,14.8681641 C153.747559,14.8681641 151.422119,15.2954102 149.359131,16.1499023 C147.296143,17.0043945 145.544434,18.2434082 144.104004,19.8669434 C142.663574,21.4904785 141.564941,23.4680176 140.808105,25.7995605 C140.05127,28.1311035 139.672852,30.7495117 139.672852,33.6547852 C139.672852,36.706543 140.032959,39.3676758 140.753174,41.6381836 C141.473389,43.9086914 142.565918,45.7885742 144.030762,47.277832 C145.495605,48.7670898 147.320557,49.8779297 149.505615,50.6103516 C151.690674,51.3427734 154.23584,51.7089844 157.141113,51.7089844 Z M162.817383,29.699707 L149.047852,29.699707 C149.09668,28.5522461 149.273682,27.4719238 149.578857,26.4587402 C149.884033,25.4455566 150.323486,24.5666504 150.897217,23.8220215 C151.470947,23.0773926 152.191162,22.4853516 153.057861,22.0458984 C153.924561,21.6064453 154.943848,21.3867188 156.115723,21.3867188 C158.435059,21.3867188 160.150146,22.1252441 161.260986,23.6022949 C162.371826,25.0793457 162.890625,27.1118164 162.817383,29.699707 L162.817383,29.699707 Z M183.947754,51.0864258 C184.851074,51.0864258 185.595703,51.0559082 186.181641,50.994873 C186.767578,50.9338379 187.237549,50.8422852 187.591553,50.7202148 C187.945557,50.5981445 188.195801,50.4455566 188.342285,50.2624512 C188.48877,50.0793457 188.562012,49.8657227 188.562012,49.621582 L188.562012,49.621582 L188.562012,29.2602539 C189.245605,28.1860352 189.886475,27.2827148 190.484619,26.550293 C191.082764,25.8178711 191.656494,25.2319336 192.205811,24.7924805 C192.755127,24.3530273 193.286133,24.029541 193.798828,23.8220215 C194.311523,23.614502 194.824219,23.5107422 195.336914,23.5107422 C195.776367,23.5107422 196.179199,23.5534668 196.54541,23.638916 C196.911621,23.7243652 197.247314,23.815918 197.55249,23.9135742 C197.857666,24.0112305 198.132324,24.1027832 198.376465,24.1882324 C198.620605,24.2736816 198.840332,24.3164062 199.035645,24.3164062 C199.279785,24.3164062 199.481201,24.2553711 199.639893,24.1333008 C199.798584,24.0112305 199.926758,23.7915039 200.024414,23.4741211 C200.12207,23.1567383 200.195312,22.7172852 200.244141,22.1557617 C200.292969,21.5942383 200.317383,20.8740234 200.317383,19.9951172 C200.317383,19.1162109 200.305176,18.4204102 200.280762,17.9077148 C200.256348,17.3950195 200.219727,17.010498 200.170898,16.7541504 C200.12207,16.4978027 200.067139,16.2963867 200.006104,16.1499023 C199.945068,16.003418 199.847412,15.8691406 199.713135,15.7470703 C199.578857,15.625 199.365234,15.5090332 199.072266,15.3991699 C198.779297,15.2893066 198.4375,15.1916504 198.046875,15.1062012 C197.65625,15.020752 197.277832,14.9597168 196.911621,14.9230957 C196.54541,14.8864746 196.203613,14.8681641 195.88623,14.8681641 C195.202637,14.8681641 194.519043,14.9597168 193.835449,15.1428223 C193.151855,15.3259277 192.468262,15.6494141 191.784668,16.1132812 C191.101074,16.5771484 190.380859,17.2058105 189.624023,17.9992676 C188.867188,18.7927246 188.061523,19.7998047 187.207031,21.0205078 L187.207031,21.0205078 L187.207031,16.9555664 C187.207031,16.7114258 187.145996,16.4978027 187.023926,16.3146973 C186.901855,16.1315918 186.700439,15.9790039 186.419678,15.8569336 C186.138916,15.7348633 185.742188,15.6433105 185.229492,15.5822754 C184.716797,15.5212402 184.069824,15.4907227 183.288574,15.4907227 C182.531738,15.4907227 181.903076,15.5212402 181.402588,15.5822754 C180.9021,15.6433105 180.493164,15.7348633 180.175781,15.8569336 C179.858398,15.9790039 179.638672,16.1315918 179.516602,16.3146973 C179.394531,16.4978027 179.333496,16.7114258 179.333496,16.9555664 L179.333496,16.9555664 L179.333496,49.621582 C179.333496,49.8657227 179.406738,50.0793457 179.553223,50.2624512 C179.699707,50.4455566 179.949951,50.5981445 180.303955,50.7202148 C180.657959,50.8422852 181.12793,50.9338379 181.713867,50.994873 C182.299805,51.0559082 183.044434,51.0864258 183.947754,51.0864258 Z M232.617188,51.0864258 C233.496094,51.0864258 234.234619,51.0559082 234.832764,50.994873 C235.430908,50.9338379 235.900879,50.8422852 236.242676,50.7202148 C236.584473,50.5981445 236.828613,50.4455566 236.975098,50.2624512 C237.121582,50.0793457 237.194824,49.8657227 237.194824,49.621582 L237.194824,49.621582 L237.194824,29.4433594 C237.194824,27.0751953 236.987305,25.0488281 236.572266,23.3642578 C236.157227,21.6796875 235.479736,20.2087402 234.539795,18.951416 C233.599854,17.6940918 232.366943,16.6992188 230.841064,15.9667969 C229.315186,15.234375 227.441406,14.8681641 225.219727,14.8681641 C223.193359,14.8681641 221.246338,15.3564453 219.378662,16.3330078 C217.510986,17.3095703 215.673828,18.7744141 213.867188,20.7275391 L213.867188,20.7275391 L213.867188,16.9555664 C213.867188,16.7114258 213.806152,16.4978027 213.684082,16.3146973 C213.562012,16.1315918 213.360596,15.9790039 213.079834,15.8569336 C212.799072,15.7348633 212.402344,15.6433105 211.889648,15.5822754 C211.376953,15.5212402 210.72998,15.4907227 209.94873,15.4907227 C209.191895,15.4907227 208.563232,15.5212402 208.062744,15.5822754 C207.562256,15.6433105 207.15332,15.7348633 206.835938,15.8569336 C206.518555,15.9790039 206.298828,16.1315918 206.176758,16.3146973 C206.054688,16.4978027 205.993652,16.7114258 205.993652,16.9555664 L205.993652,16.9555664 L205.993652,49.621582 C205.993652,49.8657227 206.066895,50.0793457 206.213379,50.2624512 C206.359863,50.4455566 206.610107,50.5981445 206.964111,50.7202148 C207.318115,50.8422852 207.788086,50.9338379 208.374023,50.994873 C208.959961,51.0559082 209.70459,51.0864258 210.60791,51.0864258 C211.51123,51.0864258 212.255859,51.0559082 212.841797,50.994873 C213.427734,50.9338379 213.897705,50.8422852 214.251709,50.7202148 C214.605713,50.5981445 214.855957,50.4455566 215.002441,50.2624512 C215.148926,50.0793457 215.222168,49.8657227 215.222168,49.621582 L215.222168,49.621582 L215.222168,27.9052734 C216.516113,26.2695312 217.76123,25.0244141 218.95752,24.1699219 C220.153809,23.3154297 221.337891,22.8881836 222.509766,22.8881836 C223.4375,22.8881836 224.249268,23.0651855 224.945068,23.4191895 C225.640869,23.7731934 226.208496,24.2736816 226.647949,24.9206543 C227.087402,25.567627 227.423096,26.3427734 227.655029,27.2460938 C227.886963,28.1494141 228.00293,29.3945312 228.00293,30.9814453 L228.00293,30.9814453 L228.00293,49.621582 C228.00293,49.8657227 228.076172,50.0793457 228.222656,50.2624512 C228.369141,50.4455566 228.613281,50.5981445 228.955078,50.7202148 C229.296875,50.8422852 229.766846,50.9338379 230.36499,50.994873 C230.963135,51.0559082 231.713867,51.0864258 232.617188,51.0864258 Z" id="modern-copy" fill="#AAAAAA"></path>
            <path d="M255.102539,51.7089844 C257.128906,51.7089844 259.008789,51.4709473 260.742188,50.994873 C262.475586,50.5187988 263.977051,49.8046875 265.246582,48.8525391 C266.516113,47.9003906 267.498779,46.7163086 268.19458,45.300293 C268.890381,43.8842773 269.238281,42.2485352 269.238281,40.3930664 C269.238281,38.9038086 269.006348,37.6159668 268.54248,36.529541 C268.078613,35.4431152 267.468262,34.5092773 266.711426,33.7280273 C265.95459,32.9467773 265.093994,32.2875977 264.129639,31.7504883 C263.165283,31.2133789 262.188721,30.7434082 261.199951,30.3405762 C260.211182,29.9377441 259.234619,29.5654297 258.270264,29.2236328 C257.305908,28.8818359 256.445312,28.515625 255.688477,28.125 C254.931641,27.734375 254.321289,27.2827148 253.857422,26.7700195 C253.393555,26.2573242 253.161621,25.6225586 253.161621,24.8657227 C253.161621,24.3774414 253.259277,23.9196777 253.45459,23.4924316 C253.649902,23.0651855 253.942871,22.6928711 254.333496,22.3754883 C254.724121,22.0581055 255.224609,21.8139648 255.834961,21.6430664 C256.445312,21.472168 257.165527,21.3867188 257.995605,21.3867188 C259.16748,21.3867188 260.211182,21.5148926 261.126709,21.7712402 C262.042236,22.0275879 262.8479,22.3022461 263.543701,22.5952148 C264.239502,22.8881836 264.819336,23.1628418 265.283203,23.4191895 C265.74707,23.6755371 266.088867,23.8037109 266.308594,23.8037109 C266.503906,23.8037109 266.674805,23.7609863 266.821289,23.6755371 C266.967773,23.5900879 267.08374,23.425293 267.169189,23.1811523 C267.254639,22.9370117 267.315674,22.6074219 267.352295,22.1923828 C267.388916,21.7773438 267.407227,21.2402344 267.407227,20.5810547 C267.407227,20.0195312 267.388916,19.5495605 267.352295,19.1711426 C267.315674,18.7927246 267.272949,18.4753418 267.224121,18.2189941 C267.175293,17.9626465 267.102051,17.7429199 267.004395,17.5598145 C266.906738,17.376709 266.741943,17.1936035 266.51001,17.010498 C266.278076,16.8273926 265.893555,16.607666 265.356445,16.3513184 C264.819336,16.0949707 264.160156,15.8569336 263.378906,15.637207 C262.597656,15.4174805 261.724854,15.234375 260.760498,15.0878906 C259.796143,14.9414062 258.80127,14.8681641 257.775879,14.8681641 C255.725098,14.8681641 253.875732,15.1245117 252.227783,15.637207 C250.579834,16.1499023 249.182129,16.8701172 248.034668,17.7978516 C246.887207,18.7255859 246.008301,19.8425293 245.397949,21.1486816 C244.787598,22.454834 244.482422,23.8891602 244.482422,25.4516602 C244.482422,26.9897461 244.708252,28.3081055 245.159912,29.4067383 C245.611572,30.5053711 246.209717,31.4453125 246.954346,32.2265625 C247.698975,33.0078125 248.54126,33.6669922 249.481201,34.2041016 C250.421143,34.7412109 251.385498,35.2172852 252.374268,35.6323242 C253.363037,36.0473633 254.327393,36.4257812 255.267334,36.7675781 C256.207275,37.109375 257.049561,37.4755859 257.794189,37.8662109 C258.538818,38.2568359 259.136963,38.7145996 259.588623,39.239502 C260.040283,39.7644043 260.266113,40.3930664 260.266113,41.1254883 C260.266113,41.7602539 260.144043,42.3217773 259.899902,42.8100586 C259.655762,43.2983398 259.295654,43.7011719 258.81958,44.0185547 C258.343506,44.3359375 257.781982,44.5800781 257.13501,44.7509766 C256.488037,44.921875 255.749512,45.0073242 254.919434,45.0073242 C253.601074,45.0073242 252.423096,44.8486328 251.385498,44.53125 C250.3479,44.2138672 249.438477,43.8720703 248.657227,43.5058594 C247.875977,43.1396484 247.2229,42.8039551 246.697998,42.4987793 C246.173096,42.1936035 245.776367,42.0410156 245.507812,42.0410156 C245.288086,42.0410156 245.10498,42.0837402 244.958496,42.1691895 C244.812012,42.2546387 244.689941,42.4255371 244.592285,42.6818848 C244.494629,42.9382324 244.421387,43.2800293 244.372559,43.7072754 C244.32373,44.1345215 244.299316,44.7021484 244.299316,45.4101562 C244.299316,46.484375 244.372559,47.2961426 244.519043,47.845459 C244.665527,48.3947754 244.873047,48.7976074 245.141602,49.0539551 C245.410156,49.3103027 245.837402,49.5849609 246.42334,49.8779297 C247.009277,50.1708984 247.741699,50.4577637 248.620605,50.7385254 C249.499512,51.0192871 250.494385,51.2512207 251.605225,51.4343262 C252.716064,51.6174316 253.881836,51.7089844 255.102539,51.7089844 Z M280.773926,64.1601562 C281.677246,64.1601562 282.421875,64.1235352 283.007812,64.050293 C283.59375,63.9770508 284.063721,63.873291 284.417725,63.7390137 C284.771729,63.6047363 285.021973,63.4399414 285.168457,63.2446289 C285.314941,63.0493164 285.388184,62.8295898 285.388184,62.5854492 L285.388184,62.5854492 L285.388184,47.2045898 C286.169434,47.9614258 286.92627,48.6206055 287.658691,49.1821289 C288.391113,49.7436523 289.129639,50.213623 289.874268,50.592041 C290.618896,50.970459 291.387939,51.2512207 292.181396,51.4343262 C292.974854,51.6174316 293.847656,51.7089844 294.799805,51.7089844 C297.094727,51.7089844 299.133301,51.2695312 300.915527,50.390625 C302.697754,49.5117188 304.187012,48.2543945 305.383301,46.6186523 C306.57959,44.9829102 307.489014,42.9992676 308.111572,40.6677246 C308.734131,38.3361816 309.04541,35.7177734 309.04541,32.8125 C309.04541,30.3466797 308.80127,28.0273438 308.312988,25.8544922 C307.824707,23.6816406 307.049561,21.7773438 305.987549,20.1416016 C304.925537,18.5058594 303.552246,17.2180176 301.867676,16.2780762 C300.183105,15.3381348 298.144531,14.8681641 295.751953,14.8681641 C294.604492,14.8681641 293.52417,14.9902344 292.510986,15.234375 C291.497803,15.4785156 290.515137,15.8508301 289.562988,16.3513184 C288.61084,16.8518066 287.677002,17.4743652 286.761475,18.2189941 C285.845947,18.963623 284.912109,19.8242188 283.959961,20.8007812 L283.959961,20.8007812 L283.959961,16.9555664 C283.959961,16.7114258 283.898926,16.4978027 283.776855,16.3146973 C283.654785,16.1315918 283.441162,15.9790039 283.135986,15.8569336 C282.830811,15.7348633 282.427979,15.6433105 281.92749,15.5822754 C281.427002,15.5212402 280.810547,15.4907227 280.078125,15.4907227 C279.321289,15.4907227 278.692627,15.5212402 278.192139,15.5822754 C277.69165,15.6433105 277.288818,15.7348633 276.983643,15.8569336 C276.678467,15.9790039 276.464844,16.1315918 276.342773,16.3146973 C276.220703,16.4978027 276.159668,16.7114258 276.159668,16.9555664 L276.159668,16.9555664 L276.159668,62.5854492 C276.159668,62.8295898 276.23291,63.0493164 276.379395,63.2446289 C276.525879,63.4399414 276.776123,63.6047363 277.130127,63.7390137 C277.484131,63.873291 277.954102,63.9770508 278.540039,64.050293 C279.125977,64.1235352 279.870605,64.1601562 280.773926,64.1601562 Z M292.749023,43.8720703 C291.479492,43.8720703 290.258789,43.4265137 289.086914,42.5354004 C287.915039,41.6442871 286.682129,40.3808594 285.388184,38.7451172 L285.388184,38.7451172 L285.388184,27.9785156 C286.120605,27.0019531 286.816406,26.184082 287.475586,25.5249023 C288.134766,24.8657227 288.775635,24.3286133 289.398193,23.9135742 C290.020752,23.4985352 290.631104,23.1994629 291.229248,23.0163574 C291.827393,22.833252 292.431641,22.7416992 293.041992,22.7416992 C294.262695,22.7416992 295.281982,23.0407715 296.099854,23.638916 C296.917725,24.2370605 297.576904,25.0366211 298.077393,26.0375977 C298.577881,27.0385742 298.931885,28.1799316 299.139404,29.4616699 C299.346924,30.7434082 299.450684,32.0800781 299.450684,33.4716797 C299.450684,34.7167969 299.32251,35.9619141 299.066162,37.2070312 C298.809814,38.4521484 298.413086,39.5690918 297.875977,40.5578613 C297.338867,41.5466309 296.64917,42.3461914 295.806885,42.956543 C294.9646,43.5668945 293.945312,43.8720703 292.749023,43.8720703 Z M326.293945,51.7089844 C328.393555,51.7089844 330.303955,51.3061523 332.025146,50.5004883 C333.746338,49.6948242 335.27832,48.5717773 336.621094,47.1313477 L336.621094,47.1313477 L336.621094,49.7314453 C336.621094,50.0732422 336.724854,50.3417969 336.932373,50.5371094 C337.139893,50.7324219 337.493896,50.8728027 337.994385,50.958252 C338.494873,51.0437012 339.294434,51.0864258 340.393066,51.0864258 C341.418457,51.0864258 342.193604,51.0437012 342.718506,50.958252 C343.243408,50.8728027 343.62793,50.7324219 343.87207,50.5371094 C344.116211,50.3417969 344.238281,50.0732422 344.238281,49.7314453 L344.238281,49.7314453 L344.238281,27.7587891 C344.238281,25.5126953 343.969727,23.5717773 343.432617,21.9360352 C342.895508,20.300293 342.041016,18.963623 340.869141,17.9260254 C339.697266,16.8884277 338.201904,16.1193848 336.383057,15.6188965 C334.564209,15.1184082 332.373047,14.8681641 329.80957,14.8681641 C328.369141,14.8681641 326.971436,14.9841309 325.616455,15.2160645 C324.261475,15.447998 323.010254,15.7470703 321.862793,16.1132812 C320.715332,16.4794922 319.714355,16.8762207 318.859863,17.3034668 C318.005371,17.7307129 317.407227,18.1213379 317.06543,18.4753418 C316.723633,18.8293457 316.491699,19.2260742 316.369629,19.6655273 C316.247559,20.1049805 316.186523,20.703125 316.186523,21.4599609 C316.186523,22.0214844 316.223145,22.5341797 316.296387,22.9980469 C316.369629,23.4619141 316.473389,23.8525391 316.607666,24.1699219 C316.741943,24.4873047 316.912842,24.7314453 317.120361,24.9023438 C317.327881,25.0732422 317.565918,25.1586914 317.834473,25.1586914 C318.225098,25.1586914 318.731689,24.987793 319.354248,24.6459961 C319.976807,24.3041992 320.751953,23.9257812 321.679688,23.5107422 C322.607422,23.0957031 323.675537,22.7172852 324.884033,22.3754883 C326.092529,22.0336914 327.46582,21.862793 329.003906,21.862793 C330.175781,21.862793 331.158447,21.9848633 331.951904,22.2290039 C332.745361,22.4731445 333.380127,22.8515625 333.856201,23.3642578 C334.332275,23.8769531 334.674072,24.5178223 334.881592,25.2868652 C335.089111,26.0559082 335.192871,26.953125 335.192871,27.9785156 L335.192871,27.9785156 L335.192871,29.9560547 L332.006836,29.9560547 C329.101562,29.9560547 326.550293,30.1757812 324.353027,30.6152344 C322.155762,31.0546875 320.318604,31.7321777 318.841553,32.6477051 C317.364502,33.5632324 316.253662,34.7229004 315.509033,36.126709 C314.764404,37.5305176 314.39209,39.1845703 314.39209,41.0888672 C314.39209,42.8466797 314.685059,44.3847656 315.270996,45.703125 C315.856934,47.0214844 316.680908,48.1262207 317.74292,49.017334 C318.804932,49.9084473 320.062256,50.579834 321.514893,51.0314941 C322.967529,51.4831543 324.560547,51.7089844 326.293945,51.7089844 Z M328.308105,45.1904297 C326.77002,45.1904297 325.567627,44.7998047 324.700928,44.0185547 C323.834229,43.2373047 323.400879,42.1630859 323.400879,40.7958984 C323.400879,39.9902344 323.553467,39.276123 323.858643,38.6535645 C324.163818,38.0310059 324.645996,37.5 325.305176,37.0605469 C325.964355,36.6210938 326.818848,36.2915039 327.868652,36.0717773 C328.918457,35.8520508 330.187988,35.7421875 331.677246,35.7421875 L331.677246,35.7421875 L335.192871,35.7421875 L335.192871,41.3085938 C334.069824,42.578125 332.965088,43.5424805 331.878662,44.2016602 C330.792236,44.8608398 329.602051,45.1904297 328.308105,45.1904297 Z M367.016602,51.6723633 C368.139648,51.6723633 369.232178,51.574707 370.294189,51.3793945 C371.356201,51.184082 372.338867,50.9277344 373.242188,50.6103516 C374.145508,50.2929688 374.951172,49.9328613 375.65918,49.5300293 C376.367188,49.1271973 376.867676,48.7854004 377.160645,48.5046387 C377.453613,48.223877 377.642822,47.9919434 377.728271,47.8088379 C377.813721,47.6257324 377.886963,47.3876953 377.947998,47.0947266 C378.009033,46.8017578 378.057861,46.4416504 378.094482,46.0144043 C378.131104,45.5871582 378.149414,45.0561523 378.149414,44.4213867 C378.149414,43.6157227 378.125,42.956543 378.076172,42.4438477 C378.027344,41.9311523 377.960205,41.5100098 377.874756,41.1804199 C377.789307,40.8508301 377.67334,40.625 377.526855,40.5029297 C377.380371,40.3808594 377.197266,40.3198242 376.977539,40.3198242 C376.660156,40.3198242 376.269531,40.5090332 375.805664,40.8874512 C375.341797,41.2658691 374.768066,41.6870117 374.084473,42.1508789 C373.400879,42.6147461 372.601318,43.0358887 371.685791,43.4143066 C370.770264,43.7927246 369.677734,43.9819336 368.408203,43.9819336 C367.163086,43.9819336 366.070557,43.7561035 365.130615,43.3044434 C364.190674,42.8527832 363.409424,42.175293 362.786865,41.2719727 C362.164307,40.3686523 361.694336,39.2456055 361.376953,37.902832 C361.05957,36.5600586 360.900879,35.0097656 360.900879,33.2519531 C360.900879,29.6875 361.535645,26.9836426 362.805176,25.1403809 C364.074707,23.2971191 365.905762,22.3754883 368.29834,22.3754883 C369.519043,22.3754883 370.568848,22.5463867 371.447754,22.8881836 C372.32666,23.2299805 373.083496,23.6083984 373.718262,24.0234375 C374.353027,24.4384766 374.902344,24.8168945 375.366211,25.1586914 C375.830078,25.5004883 376.269531,25.6713867 376.68457,25.6713867 C377.075195,25.6713867 377.392578,25.3845215 377.636719,24.810791 C377.880859,24.2370605 378.00293,23.2421875 378.00293,21.8261719 C378.00293,21.2158203 377.984619,20.6970215 377.947998,20.2697754 C377.911377,19.8425293 377.862549,19.4824219 377.801514,19.1894531 C377.740479,18.8964844 377.655029,18.6584473 377.545166,18.4753418 C377.435303,18.2922363 377.246094,18.0664062 376.977539,17.7978516 C376.708984,17.5292969 376.251221,17.2119141 375.604248,16.8457031 C374.957275,16.4794922 374.224854,16.1499023 373.406982,15.8569336 C372.589111,15.5639648 371.710205,15.3320312 370.770264,15.1611328 C369.830322,14.9902344 368.87207,14.9047852 367.895508,14.9047852 C365.50293,14.9047852 363.305664,15.2832031 361.303711,16.0400391 C359.301758,16.796875 357.568359,17.956543 356.103516,19.519043 C354.638672,21.081543 353.497314,23.0529785 352.679443,25.4333496 C351.861572,27.8137207 351.452637,30.6396484 351.452637,33.9111328 C351.452637,36.7431641 351.78833,39.2578125 352.459717,41.4550781 C353.131104,43.6523438 354.125977,45.513916 355.444336,47.0397949 C356.762695,48.5656738 358.392334,49.7192383 360.333252,50.5004883 C362.27417,51.2817383 364.501953,51.6723633 367.016602,51.6723633 Z M400.378418,51.7089844 C401.989746,51.7089844 403.503418,51.6052246 404.919434,51.3977051 C406.335449,51.1901855 407.592773,50.9460449 408.691406,50.6652832 C409.790039,50.3845215 410.693359,50.0976562 411.401367,49.8046875 C412.109375,49.5117188 412.542725,49.2797852 412.701416,49.1088867 C412.860107,48.9379883 412.988281,48.7609863 413.085938,48.5778809 C413.183594,48.3947754 413.256836,48.1689453 413.305664,47.9003906 C413.354492,47.6318359 413.391113,47.3083496 413.415527,46.9299316 C413.439941,46.5515137 413.452148,46.09375 413.452148,45.5566406 C413.452148,44.9462891 413.433838,44.4396973 413.397217,44.0368652 C413.360596,43.6340332 413.293457,43.3227539 413.195801,43.1030273 C413.098145,42.8833008 412.976074,42.7307129 412.82959,42.6452637 C412.683105,42.5598145 412.5,42.5170898 412.280273,42.5170898 C411.914062,42.5170898 411.437988,42.6330566 410.852051,42.8649902 C410.266113,43.0969238 409.527588,43.3532715 408.636475,43.6340332 C407.745361,43.9147949 406.689453,44.1711426 405.46875,44.4030762 C404.248047,44.6350098 402.832031,44.7509766 401.220703,44.7509766 C399.633789,44.7509766 398.272705,44.543457 397.137451,44.128418 C396.002197,43.7133789 395.074463,43.1091309 394.354248,42.3156738 C393.634033,41.5222168 393.109131,40.5578613 392.779541,39.4226074 C392.449951,38.2873535 392.285156,37.0239258 392.285156,35.6323242 L392.285156,35.6323242 L412.17041,35.6323242 C413.049316,35.6323242 413.739014,35.3637695 414.239502,34.8266602 C414.73999,34.2895508 414.990234,33.4594727 414.990234,32.3364258 L414.990234,32.3364258 L414.990234,30.871582 C414.990234,28.5766602 414.697266,26.4526367 414.111328,24.4995117 C413.525391,22.5463867 412.609863,20.8557129 411.364746,19.4274902 C410.119629,17.9992676 408.526611,16.8823242 406.585693,16.0766602 C404.644775,15.2709961 402.307129,14.8681641 399.572754,14.8681641 C396.984863,14.8681641 394.659424,15.2954102 392.596436,16.1499023 C390.533447,17.0043945 388.781738,18.2434082 387.341309,19.8669434 C385.900879,21.4904785 384.802246,23.4680176 384.04541,25.7995605 C383.288574,28.1311035 382.910156,30.7495117 382.910156,33.6547852 C382.910156,36.706543 383.270264,39.3676758 383.990479,41.6381836 C384.710693,43.9086914 385.803223,45.7885742 387.268066,47.277832 C388.73291,48.7670898 390.557861,49.8779297 392.74292,50.6103516 C394.927979,51.3427734 397.473145,51.7089844 400.378418,51.7089844 Z M406.054688,29.699707 L392.285156,29.699707 C392.333984,28.5522461 392.510986,27.4719238 392.816162,26.4587402 C393.121338,25.4455566 393.560791,24.5666504 394.134521,23.8220215 C394.708252,23.0773926 395.428467,22.4853516 396.295166,22.0458984 C397.161865,21.6064453 398.181152,21.3867188 399.353027,21.3867188 C401.672363,21.3867188 403.387451,22.1252441 404.498291,23.6022949 C405.609131,25.0793457 406.12793,27.1118164 406.054688,29.699707 L406.054688,29.699707 Z" id="space-copy" fill="#FFFFFF"></path>
        </g>
    </g>
</svg>